<svg width="1920" height="1080" viewBox="0 0 1920 1080" fill="none" xmlns="http://www.w3.org/2000/svg">
<rect width="1920" height="1080" rx="64" fill="#7CC6FE"/>
<path d="M561.758 579.055C561.758 595.461 558.958 610.435 553.359 623.977C547.76 637.518 540.143 649.172 530.508 658.938C520.872 668.573 509.544 676.06 496.523 681.398C483.633 686.737 469.766 689.406 454.922 689.406C440.208 689.406 426.341 686.672 413.32 681.203C400.43 675.734 389.102 668.117 379.336 658.352C369.701 648.586 362.083 636.997 356.484 623.586C350.885 610.044 348.086 595.201 348.086 579.055V393.117H401.602V490.773C404.466 487.128 407.917 483.872 411.953 481.008C416.12 478.143 420.547 475.799 425.234 473.977C430.052 472.154 435 470.786 440.078 469.875C445.156 468.833 450.104 468.312 454.922 468.312C469.766 468.312 483.633 471.112 496.523 476.711C509.544 482.18 520.872 489.862 530.508 499.758C540.143 509.654 547.76 521.372 553.359 534.914C558.958 548.326 561.758 563.039 561.758 579.055ZM508.047 579.055C508.047 570.982 506.615 563.495 503.75 556.594C501.016 549.562 497.24 543.508 492.422 538.43C487.604 533.352 481.94 529.38 475.43 526.516C469.049 523.651 462.214 522.219 454.922 522.219C447.63 522.219 440.729 523.846 434.219 527.102C427.839 530.227 422.24 534.458 417.422 539.797C412.604 545.005 408.828 551.06 406.094 557.961C403.359 564.732 401.992 571.763 401.992 579.055C401.992 587.128 403.359 594.615 406.094 601.516C408.828 608.417 412.604 614.406 417.422 619.484C422.24 624.562 427.839 628.599 434.219 631.594C440.729 634.458 447.63 635.891 454.922 635.891C462.214 635.891 469.049 634.458 475.43 631.594C481.94 628.599 487.604 624.562 492.422 619.484C497.24 614.406 501.016 608.417 503.75 601.516C506.615 594.615 508.047 587.128 508.047 579.055ZM793.984 685.5H781.094L760.391 656.789C755.312 661.346 749.909 665.643 744.18 669.68C738.581 673.586 732.656 677.036 726.406 680.031C720.156 682.896 713.711 685.174 707.07 686.867C700.56 688.56 693.919 689.406 687.148 689.406C672.435 689.406 658.568 686.932 645.547 681.984C632.656 677.036 621.328 669.875 611.562 660.5C601.927 650.995 594.31 639.406 588.711 625.734C583.112 612.062 580.312 596.503 580.312 579.055C580.312 562.779 583.112 547.87 588.711 534.328C594.31 520.656 601.927 508.938 611.562 499.172C621.328 489.406 632.656 481.854 645.547 476.516C658.568 471.047 672.435 468.312 687.148 468.312C693.919 468.312 700.625 469.159 707.266 470.852C713.906 472.544 720.352 474.888 726.602 477.883C732.852 480.878 738.776 484.393 744.375 488.43C750.104 492.466 755.443 496.828 760.391 501.516L781.094 476.711H793.984V685.5ZM740.273 579.055C740.273 571.763 738.841 564.732 735.977 557.961C733.242 551.06 729.466 545.005 724.648 539.797C719.831 534.458 714.167 530.227 707.656 527.102C701.276 523.846 694.44 522.219 687.148 522.219C679.857 522.219 672.956 523.456 666.445 525.93C660.065 528.404 654.466 532.049 649.648 536.867C644.961 541.685 641.25 547.674 638.516 554.836C635.781 561.867 634.414 569.94 634.414 579.055C634.414 588.169 635.781 596.307 638.516 603.469C641.25 610.5 644.961 616.424 649.648 621.242C654.466 626.06 660.065 629.706 666.445 632.18C672.956 634.654 679.857 635.891 687.148 635.891C694.44 635.891 701.276 634.328 707.656 631.203C714.167 627.948 719.831 623.716 724.648 618.508C729.466 613.169 733.242 607.115 735.977 600.344C738.841 593.443 740.273 586.346 740.273 579.055ZM888.125 685.5H834.805V476.32H847.695L865.273 496.633C873.867 488.82 883.568 482.831 894.375 478.664C905.312 474.367 916.706 472.219 928.555 472.219C941.315 472.219 953.359 474.693 964.688 479.641C976.016 484.458 985.911 491.164 994.375 499.758C1002.84 508.221 1009.48 518.182 1014.3 529.641C1019.24 540.969 1021.72 553.078 1021.72 565.969V685.5H968.398V565.969C968.398 560.5 967.357 555.357 965.273 550.539C963.19 545.591 960.326 541.294 956.68 537.648C953.034 534.003 948.802 531.138 943.984 529.055C939.167 526.971 934.023 525.93 928.555 525.93C922.956 525.93 917.682 526.971 912.734 529.055C907.786 531.138 903.49 534.003 899.844 537.648C896.198 541.294 893.333 545.591 891.25 550.539C889.167 555.357 888.125 560.5 888.125 565.969V685.5ZM1161.95 685.5C1149.06 685.5 1136.95 683.091 1125.62 678.273C1114.3 673.326 1104.34 666.62 1095.74 658.156C1087.28 649.562 1080.57 639.602 1075.62 628.273C1070.81 616.945 1068.4 604.836 1068.4 591.945V529.836H1042.42V476.711H1068.4V393.117H1121.52V476.711H1202.38V529.836H1121.52V591.945C1121.52 597.544 1122.57 602.818 1124.65 607.766C1126.73 612.583 1129.6 616.815 1133.24 620.461C1136.89 624.107 1141.18 627.036 1146.13 629.25C1151.08 631.333 1156.35 632.375 1161.95 632.375H1202.38V685.5H1161.95ZM1315.66 634.328C1317.75 634.979 1319.83 635.435 1321.91 635.695C1324 635.826 1326.08 635.891 1328.16 635.891C1333.37 635.891 1338.39 635.174 1343.2 633.742C1348.02 632.31 1352.51 630.292 1356.68 627.688C1360.98 624.953 1364.75 621.698 1368.01 617.922C1371.39 614.016 1374.13 609.719 1376.21 605.031L1415.27 644.289C1410.33 651.32 1404.6 657.635 1398.09 663.234C1391.71 668.833 1384.74 673.586 1377.19 677.492C1369.77 681.398 1361.89 684.328 1353.55 686.281C1345.35 688.365 1336.89 689.406 1328.16 689.406C1313.45 689.406 1299.58 686.672 1286.56 681.203C1273.67 675.734 1262.34 668.117 1252.58 658.352C1242.94 648.586 1235.33 636.997 1229.73 623.586C1224.13 610.044 1221.33 595.201 1221.33 579.055C1221.33 562.518 1224.13 547.414 1229.73 533.742C1235.33 520.07 1242.94 508.417 1252.58 498.781C1262.34 489.146 1273.67 481.659 1286.56 476.32C1299.58 470.982 1313.45 468.312 1328.16 468.312C1336.89 468.312 1345.42 469.354 1353.75 471.438C1362.08 473.521 1369.96 476.516 1377.38 480.422C1384.93 484.328 1391.97 489.146 1398.48 494.875C1404.99 500.474 1410.72 506.789 1415.66 513.82L1315.66 634.328ZM1343.01 524.367C1340.53 523.456 1338.06 522.87 1335.59 522.609C1333.24 522.349 1330.77 522.219 1328.16 522.219C1320.87 522.219 1313.97 523.586 1307.46 526.32C1301.08 528.924 1295.48 532.701 1290.66 537.648C1285.98 542.596 1282.27 548.586 1279.53 555.617C1276.8 562.518 1275.43 570.331 1275.43 579.055C1275.43 581.008 1275.49 583.221 1275.62 585.695C1275.89 588.169 1276.21 590.708 1276.6 593.312C1277.12 595.786 1277.71 598.195 1278.36 600.539C1279.01 602.883 1279.86 604.966 1280.9 606.789L1343.01 524.367ZM1495.94 685.5H1442.62V476.32H1455.51L1473.09 501.125C1481.68 493.312 1491.45 487.323 1502.38 483.156C1513.32 478.859 1524.65 476.711 1536.37 476.711H1583.44V529.836H1536.37C1530.77 529.836 1525.49 530.878 1520.55 532.961C1515.6 535.044 1511.3 537.909 1507.66 541.555C1504.01 545.201 1501.15 549.497 1499.06 554.445C1496.98 559.393 1495.94 564.667 1495.94 570.266V685.5Z" fill="black"/>
</svg>
