<svg width="3600" height="2252" viewBox="0 0 3600 2252" fill="none" xmlns="http://www.w3.org/2000/svg">
<rect width="3600" height="2252" rx="64" fill="#7CC6FE"/>
<path d="M1003.52 1204.61C1003.52 1237.42 997.917 1267.37 986.719 1294.45C975.521 1321.54 960.286 1344.84 941.016 1364.38C921.745 1383.65 899.089 1398.62 873.047 1409.3C847.266 1419.97 819.531 1425.31 789.844 1425.31C760.417 1425.31 732.682 1419.84 706.641 1408.91C680.859 1397.97 658.203 1382.73 638.672 1363.2C619.401 1343.67 604.167 1320.49 592.969 1293.67C581.771 1266.59 576.172 1236.9 576.172 1204.61V832.734H683.203V1028.05C688.932 1020.76 695.833 1014.24 703.906 1008.52C712.24 1002.79 721.094 998.099 730.469 994.453C740.104 990.807 750 988.073 760.156 986.25C770.312 984.167 780.208 983.125 789.844 983.125C819.531 983.125 847.266 988.724 873.047 999.922C899.089 1010.86 921.745 1026.22 941.016 1046.02C960.286 1065.81 975.521 1089.24 986.719 1116.33C997.917 1143.15 1003.52 1172.58 1003.52 1204.61ZM896.094 1204.61C896.094 1188.46 893.229 1173.49 887.5 1159.69C882.031 1145.62 874.479 1133.52 864.844 1123.36C855.208 1113.2 843.88 1105.26 830.859 1099.53C818.099 1093.8 804.427 1090.94 789.844 1090.94C775.26 1090.94 761.458 1094.19 748.438 1100.7C735.677 1106.95 724.479 1115.42 714.844 1126.09C705.208 1136.51 697.656 1148.62 692.188 1162.42C686.719 1175.96 683.984 1190.03 683.984 1204.61C683.984 1220.76 686.719 1235.73 692.188 1249.53C697.656 1263.33 705.208 1275.31 714.844 1285.47C724.479 1295.62 735.677 1303.7 748.438 1309.69C761.458 1315.42 775.26 1318.28 789.844 1318.28C804.427 1318.28 818.099 1315.42 830.859 1309.69C843.88 1303.7 855.208 1295.62 864.844 1285.47C874.479 1275.31 882.031 1263.33 887.5 1249.53C893.229 1235.73 896.094 1220.76 896.094 1204.61ZM1467.97 1417.5H1442.19L1400.78 1360.08C1390.62 1369.19 1379.82 1377.79 1368.36 1385.86C1357.16 1393.67 1345.31 1400.57 1332.81 1406.56C1320.31 1412.29 1307.42 1416.85 1294.14 1420.23C1281.12 1423.62 1267.84 1425.31 1254.3 1425.31C1224.87 1425.31 1197.14 1420.36 1171.09 1410.47C1145.31 1400.57 1122.66 1386.25 1103.12 1367.5C1083.85 1348.49 1068.62 1325.31 1057.42 1297.97C1046.22 1270.62 1040.62 1239.51 1040.62 1204.61C1040.62 1172.06 1046.22 1142.24 1057.42 1115.16C1068.62 1087.81 1083.85 1064.38 1103.12 1044.84C1122.66 1025.31 1145.31 1010.21 1171.09 999.531C1197.14 988.594 1224.87 983.125 1254.3 983.125C1267.84 983.125 1281.25 984.818 1294.53 988.203C1307.81 991.589 1320.7 996.276 1333.2 1002.27C1345.7 1008.26 1357.55 1015.29 1368.75 1023.36C1380.21 1031.43 1390.89 1040.16 1400.78 1049.53L1442.19 999.922H1467.97V1417.5ZM1360.55 1204.61C1360.55 1190.03 1357.68 1175.96 1351.95 1162.42C1346.48 1148.62 1338.93 1136.51 1329.3 1126.09C1319.66 1115.42 1308.33 1106.95 1295.31 1100.7C1282.55 1094.19 1268.88 1090.94 1254.3 1090.94C1239.71 1090.94 1225.91 1093.41 1212.89 1098.36C1200.13 1103.31 1188.93 1110.6 1179.3 1120.23C1169.92 1129.87 1162.5 1141.85 1157.03 1156.17C1151.56 1170.23 1148.83 1186.38 1148.83 1204.61C1148.83 1222.84 1151.56 1239.11 1157.03 1253.44C1162.5 1267.5 1169.92 1279.35 1179.3 1288.98C1188.93 1298.62 1200.13 1305.91 1212.89 1310.86C1225.91 1315.81 1239.71 1318.28 1254.3 1318.28C1268.88 1318.28 1282.55 1315.16 1295.31 1308.91C1308.33 1302.4 1319.66 1293.93 1329.3 1283.52C1338.93 1272.84 1346.48 1260.73 1351.95 1247.19C1357.68 1233.39 1360.55 1219.19 1360.55 1204.61ZM1656.25 1417.5H1549.61V999.141H1575.39L1610.55 1039.77C1627.73 1024.14 1647.14 1012.16 1668.75 1003.83C1690.62 995.234 1713.41 990.938 1737.11 990.938C1762.63 990.938 1786.72 995.885 1809.38 1005.78C1832.03 1015.42 1851.82 1028.83 1868.75 1046.02C1885.68 1062.94 1898.96 1082.86 1908.59 1105.78C1918.49 1128.44 1923.44 1152.66 1923.44 1178.44V1417.5H1816.8V1178.44C1816.8 1167.5 1814.71 1157.21 1810.55 1147.58C1806.38 1137.68 1800.65 1129.09 1793.36 1121.8C1786.07 1114.51 1777.6 1108.78 1767.97 1104.61C1758.33 1100.44 1748.05 1098.36 1737.11 1098.36C1725.91 1098.36 1715.36 1100.44 1705.47 1104.61C1695.57 1108.78 1686.98 1114.51 1679.69 1121.8C1672.4 1129.09 1666.67 1137.68 1662.5 1147.58C1658.33 1157.21 1656.25 1167.5 1656.25 1178.44V1417.5ZM2203.91 1417.5C2178.12 1417.5 2153.91 1412.68 2131.25 1403.05C2108.59 1393.15 2088.67 1379.74 2071.48 1362.81C2054.56 1345.62 2041.15 1325.7 2031.25 1303.05C2021.61 1280.39 2016.8 1256.17 2016.8 1230.39V1106.17H1964.84V999.922H2016.8V832.734H2123.05V999.922H2284.77V1106.17H2123.05V1230.39C2123.05 1241.59 2125.13 1252.14 2129.3 1262.03C2133.46 1271.67 2139.19 1280.13 2146.48 1287.42C2153.78 1294.71 2162.37 1300.57 2172.27 1305C2182.16 1309.17 2192.71 1311.25 2203.91 1311.25H2284.77V1417.5H2203.91ZM2511.33 1315.16C2515.49 1316.46 2519.66 1317.37 2523.83 1317.89C2527.99 1318.15 2532.16 1318.28 2536.33 1318.28C2546.74 1318.28 2556.77 1316.85 2566.41 1313.98C2576.04 1311.12 2585.03 1307.08 2593.36 1301.88C2601.95 1296.41 2609.51 1289.9 2616.02 1282.34C2622.79 1274.53 2628.26 1265.94 2632.42 1256.56L2710.55 1335.08C2700.65 1349.14 2689.19 1361.77 2676.17 1372.97C2663.41 1384.17 2649.48 1393.67 2634.38 1401.48C2619.53 1409.3 2603.78 1415.16 2587.11 1419.06C2570.7 1423.23 2553.78 1425.31 2536.33 1425.31C2506.9 1425.31 2479.17 1419.84 2453.12 1408.91C2427.34 1397.97 2404.69 1382.73 2385.16 1363.2C2365.89 1343.67 2350.65 1320.49 2339.45 1293.67C2328.26 1266.59 2322.66 1236.9 2322.66 1204.61C2322.66 1171.54 2328.26 1141.33 2339.45 1113.98C2350.65 1086.64 2365.89 1063.33 2385.16 1044.06C2404.69 1024.79 2427.34 1009.82 2453.12 999.141C2479.17 988.464 2506.9 983.125 2536.33 983.125C2553.78 983.125 2570.83 985.208 2587.5 989.375C2604.17 993.542 2619.92 999.531 2634.77 1007.34C2649.87 1015.16 2663.93 1024.79 2676.95 1036.25C2689.97 1047.45 2701.43 1060.08 2711.33 1074.14L2511.33 1315.16ZM2566.02 1095.23C2561.07 1093.41 2556.12 1092.24 2551.17 1091.72C2546.48 1091.2 2541.54 1090.94 2536.33 1090.94C2521.74 1090.94 2507.94 1093.67 2494.92 1099.14C2482.16 1104.35 2470.96 1111.9 2461.33 1121.8C2451.95 1131.69 2444.53 1143.67 2439.06 1157.73C2433.59 1171.54 2430.86 1187.16 2430.86 1204.61C2430.86 1208.52 2430.99 1212.94 2431.25 1217.89C2431.77 1222.84 2432.42 1227.92 2433.2 1233.12C2434.24 1238.07 2435.42 1242.89 2436.72 1247.58C2438.02 1252.27 2439.71 1256.43 2441.8 1260.08L2566.02 1095.23ZM2871.88 1417.5H2765.23V999.141H2791.02L2826.17 1048.75C2843.36 1033.12 2862.89 1021.15 2884.77 1012.81C2906.64 1004.22 2929.3 999.922 2952.73 999.922H3046.88V1106.17H2952.73C2941.54 1106.17 2930.99 1108.26 2921.09 1112.42C2911.2 1116.59 2902.6 1122.32 2895.31 1129.61C2888.02 1136.9 2882.29 1145.49 2878.12 1155.39C2873.96 1165.29 2871.88 1175.83 2871.88 1187.03V1417.5Z" fill="black"/>
</svg>
