<svg width="1920" height="720" viewBox="0 0 1920 720" fill="none" xmlns="http://www.w3.org/2000/svg">
<rect width="1920" height="720" fill="#7CC6FE"/>
<path d="M800.703 375.922C800.703 382.484 799.583 388.474 797.344 393.891C795.104 399.307 792.057 403.969 788.203 407.875C784.349 411.729 779.818 414.724 774.609 416.859C769.453 418.995 763.906 420.062 757.969 420.062C752.083 420.062 746.536 418.969 741.328 416.781C736.172 414.594 731.641 411.547 727.734 407.641C723.88 403.734 720.833 399.099 718.594 393.734C716.354 388.318 715.234 382.38 715.234 375.922V301.547H736.641V340.609C737.786 339.151 739.167 337.849 740.781 336.703C742.448 335.557 744.219 334.62 746.094 333.891C748.021 333.161 750 332.615 752.031 332.25C754.062 331.833 756.042 331.625 757.969 331.625C763.906 331.625 769.453 332.745 774.609 334.984C779.818 337.172 784.349 340.245 788.203 344.203C792.057 348.161 795.104 352.849 797.344 358.266C799.583 363.63 800.703 369.516 800.703 375.922ZM779.219 375.922C779.219 372.693 778.646 369.698 777.5 366.938C776.406 364.125 774.896 361.703 772.969 359.672C771.042 357.641 768.776 356.052 766.172 354.906C763.62 353.76 760.885 353.188 757.969 353.188C755.052 353.188 752.292 353.839 749.688 355.141C747.135 356.391 744.896 358.083 742.969 360.219C741.042 362.302 739.531 364.724 738.438 367.484C737.344 370.193 736.797 373.005 736.797 375.922C736.797 379.151 737.344 382.146 738.438 384.906C739.531 387.667 741.042 390.062 742.969 392.094C744.896 394.125 747.135 395.74 749.688 396.938C752.292 398.083 755.052 398.656 757.969 398.656C760.885 398.656 763.62 398.083 766.172 396.938C768.776 395.74 771.042 394.125 772.969 392.094C774.896 390.062 776.406 387.667 777.5 384.906C778.646 382.146 779.219 379.151 779.219 375.922ZM893.594 418.5H888.438L880.156 407.016C878.125 408.839 875.964 410.557 873.672 412.172C871.432 413.734 869.062 415.115 866.562 416.312C864.062 417.458 861.484 418.37 858.828 419.047C856.224 419.724 853.568 420.062 850.859 420.062C844.974 420.062 839.427 419.073 834.219 417.094C829.062 415.115 824.531 412.25 820.625 408.5C816.771 404.698 813.724 400.062 811.484 394.594C809.245 389.125 808.125 382.901 808.125 375.922C808.125 369.411 809.245 363.448 811.484 358.031C813.724 352.562 816.771 347.875 820.625 343.969C824.531 340.062 829.062 337.042 834.219 334.906C839.427 332.719 844.974 331.625 850.859 331.625C853.568 331.625 856.25 331.964 858.906 332.641C861.562 333.318 864.141 334.255 866.641 335.453C869.141 336.651 871.51 338.057 873.75 339.672C876.042 341.286 878.177 343.031 880.156 344.906L888.438 334.984H893.594V418.5ZM872.109 375.922C872.109 373.005 871.536 370.193 870.391 367.484C869.297 364.724 867.786 362.302 865.859 360.219C863.932 358.083 861.667 356.391 859.062 355.141C856.51 353.839 853.776 353.188 850.859 353.188C847.943 353.188 845.182 353.682 842.578 354.672C840.026 355.661 837.786 357.12 835.859 359.047C833.984 360.974 832.5 363.37 831.406 366.234C830.312 369.047 829.766 372.276 829.766 375.922C829.766 379.568 830.312 382.823 831.406 385.688C832.5 388.5 833.984 390.87 835.859 392.797C837.786 394.724 840.026 396.182 842.578 397.172C845.182 398.161 847.943 398.656 850.859 398.656C853.776 398.656 856.51 398.031 859.062 396.781C861.667 395.479 863.932 393.786 865.859 391.703C867.786 389.568 869.297 387.146 870.391 384.438C871.536 381.677 872.109 378.839 872.109 375.922ZM931.25 418.5H909.922V334.828H915.078L922.109 342.953C925.547 339.828 929.427 337.432 933.75 335.766C938.125 334.047 942.682 333.188 947.422 333.188C952.526 333.188 957.344 334.177 961.875 336.156C966.406 338.083 970.365 340.766 973.75 344.203C977.135 347.589 979.792 351.573 981.719 356.156C983.698 360.688 984.688 365.531 984.688 370.688V418.5H963.359V370.688C963.359 368.5 962.943 366.443 962.109 364.516C961.276 362.536 960.13 360.818 958.672 359.359C957.214 357.901 955.521 356.755 953.594 355.922C951.667 355.089 949.609 354.672 947.422 354.672C945.182 354.672 943.073 355.089 941.094 355.922C939.115 356.755 937.396 357.901 935.938 359.359C934.479 360.818 933.333 362.536 932.5 364.516C931.667 366.443 931.25 368.5 931.25 370.688V418.5ZM1040.78 418.5C1035.62 418.5 1030.78 417.536 1026.25 415.609C1021.72 413.63 1017.73 410.948 1014.3 407.562C1010.91 404.125 1008.23 400.141 1006.25 395.609C1004.32 391.078 1003.36 386.234 1003.36 381.078V356.234H992.969V334.984H1003.36V301.547H1024.61V334.984H1056.95V356.234H1024.61V381.078C1024.61 383.318 1025.03 385.427 1025.86 387.406C1026.69 389.333 1027.84 391.026 1029.3 392.484C1030.76 393.943 1032.47 395.115 1034.45 396C1036.43 396.833 1038.54 397.25 1040.78 397.25H1056.95V418.5H1040.78ZM1102.27 398.031C1103.1 398.292 1103.93 398.474 1104.77 398.578C1105.6 398.63 1106.43 398.656 1107.27 398.656C1109.35 398.656 1111.35 398.37 1113.28 397.797C1115.21 397.224 1117.01 396.417 1118.67 395.375C1120.39 394.281 1121.9 392.979 1123.2 391.469C1124.56 389.906 1125.65 388.188 1126.48 386.312L1142.11 402.016C1140.13 404.828 1137.84 407.354 1135.23 409.594C1132.68 411.833 1129.9 413.734 1126.88 415.297C1123.91 416.859 1120.76 418.031 1117.42 418.812C1114.14 419.646 1110.76 420.062 1107.27 420.062C1101.38 420.062 1095.83 418.969 1090.62 416.781C1085.47 414.594 1080.94 411.547 1077.03 407.641C1073.18 403.734 1070.13 399.099 1067.89 393.734C1065.65 388.318 1064.53 382.38 1064.53 375.922C1064.53 369.307 1065.65 363.266 1067.89 357.797C1070.13 352.328 1073.18 347.667 1077.03 343.812C1080.94 339.958 1085.47 336.964 1090.62 334.828C1095.83 332.693 1101.38 331.625 1107.27 331.625C1110.76 331.625 1114.17 332.042 1117.5 332.875C1120.83 333.708 1123.98 334.906 1126.95 336.469C1129.97 338.031 1132.79 339.958 1135.39 342.25C1137.99 344.49 1140.29 347.016 1142.27 349.828L1102.27 398.031ZM1113.2 354.047C1112.21 353.682 1111.22 353.448 1110.23 353.344C1109.3 353.24 1108.31 353.188 1107.27 353.188C1104.35 353.188 1101.59 353.734 1098.98 354.828C1096.43 355.87 1094.19 357.38 1092.27 359.359C1090.39 361.339 1088.91 363.734 1087.81 366.547C1086.72 369.307 1086.17 372.432 1086.17 375.922C1086.17 376.703 1086.2 377.589 1086.25 378.578C1086.35 379.568 1086.48 380.583 1086.64 381.625C1086.85 382.615 1087.08 383.578 1087.34 384.516C1087.6 385.453 1087.94 386.286 1088.36 387.016L1113.2 354.047ZM1174.38 418.5H1153.05V334.828H1158.2L1165.23 344.75C1168.67 341.625 1172.58 339.229 1176.95 337.562C1181.33 335.844 1185.86 334.984 1190.55 334.984H1209.38V356.234H1190.55C1188.31 356.234 1186.2 356.651 1184.22 357.484C1182.24 358.318 1180.52 359.464 1179.06 360.922C1177.6 362.38 1176.46 364.099 1175.62 366.078C1174.79 368.057 1174.38 370.167 1174.38 372.406V418.5Z" fill="black"/>
</svg>
