<svg width="1920" height="720" viewBox="0 0 1920 720" fill="none" xmlns="http://www.w3.org/2000/svg">
<rect width="1920" height="720" fill="#FFCB05"/>
<path d="M318.984 328.891V373.734H341.406C344.479 373.734 347.37 373.161 350.078 372.016C352.786 370.818 355.156 369.203 357.188 367.172C359.219 365.141 360.807 362.771 361.953 360.062C363.151 357.302 363.75 354.385 363.75 351.312C363.75 348.24 363.151 345.349 361.953 342.641C360.807 339.88 359.219 337.484 357.188 335.453C355.156 333.422 352.786 331.833 350.078 330.688C347.37 329.49 344.479 328.891 341.406 328.891H318.984ZM318.984 418.5H296.562V306.469H341.406C345.521 306.469 349.479 307.016 353.281 308.109C357.083 309.151 360.625 310.661 363.906 312.641C367.24 314.568 370.26 316.911 372.969 319.672C375.729 322.38 378.073 325.401 380 328.734C381.979 332.068 383.49 335.635 384.531 339.438C385.625 343.24 386.172 347.198 386.172 351.312C386.172 357.458 385 363.266 382.656 368.734C380.312 374.151 377.109 378.891 373.047 382.953C368.984 387.016 364.219 390.219 358.75 392.562C353.333 394.906 347.552 396.078 341.406 396.078H318.984V418.5ZM477.969 375.922C477.969 382.172 476.849 388.005 474.609 393.422C472.37 398.786 469.323 403.448 465.469 407.406C461.615 411.312 457.083 414.411 451.875 416.703C446.719 418.943 441.172 420.062 435.234 420.062C429.349 420.062 423.802 418.943 418.594 416.703C413.438 414.411 408.906 411.312 405 407.406C401.146 403.448 398.099 398.786 395.859 393.422C393.62 388.005 392.5 382.172 392.5 375.922C392.5 369.568 393.62 363.682 395.859 358.266C398.099 352.849 401.146 348.188 405 344.281C408.906 340.323 413.438 337.224 418.594 334.984C423.802 332.745 429.349 331.625 435.234 331.625C441.172 331.625 446.719 332.693 451.875 334.828C457.083 336.911 461.615 339.906 465.469 343.812C469.323 347.667 472.37 352.328 474.609 357.797C476.849 363.214 477.969 369.255 477.969 375.922ZM456.484 375.922C456.484 372.484 455.911 369.385 454.766 366.625C453.672 363.812 452.161 361.417 450.234 359.438C448.307 357.406 446.042 355.87 443.438 354.828C440.885 353.734 438.151 353.188 435.234 353.188C432.318 353.188 429.557 353.734 426.953 354.828C424.401 355.87 422.161 357.406 420.234 359.438C418.359 361.417 416.875 363.812 415.781 366.625C414.688 369.385 414.141 372.484 414.141 375.922C414.141 379.151 414.688 382.146 415.781 384.906C416.875 387.667 418.359 390.062 420.234 392.094C422.161 394.125 424.401 395.74 426.953 396.938C429.557 398.083 432.318 398.656 435.234 398.656C438.151 398.656 440.885 398.109 443.438 397.016C446.042 395.922 448.307 394.385 450.234 392.406C452.161 390.427 453.672 388.031 454.766 385.219C455.911 382.406 456.484 379.307 456.484 375.922ZM511.25 418.5H489.766V301.547H511.25V375.297L543.047 334.984H567.578L539.844 369.828L567.578 418.5H543.047L526.094 388.109L511.25 407.797V418.5ZM609.297 398.031C610.13 398.292 610.964 398.474 611.797 398.578C612.63 398.63 613.464 398.656 614.297 398.656C616.38 398.656 618.385 398.37 620.312 397.797C622.24 397.224 624.036 396.417 625.703 395.375C627.422 394.281 628.932 392.979 630.234 391.469C631.589 389.906 632.682 388.188 633.516 386.312L649.141 402.016C647.161 404.828 644.87 407.354 642.266 409.594C639.714 411.833 636.927 413.734 633.906 415.297C630.938 416.859 627.786 418.031 624.453 418.812C621.172 419.646 617.786 420.062 614.297 420.062C608.411 420.062 602.865 418.969 597.656 416.781C592.5 414.594 587.969 411.547 584.062 407.641C580.208 403.734 577.161 399.099 574.922 393.734C572.682 388.318 571.562 382.38 571.562 375.922C571.562 369.307 572.682 363.266 574.922 357.797C577.161 352.328 580.208 347.667 584.062 343.812C587.969 339.958 592.5 336.964 597.656 334.828C602.865 332.693 608.411 331.625 614.297 331.625C617.786 331.625 621.198 332.042 624.531 332.875C627.865 333.708 631.016 334.906 633.984 336.469C637.005 338.031 639.818 339.958 642.422 342.25C645.026 344.49 647.318 347.016 649.297 349.828L609.297 398.031ZM620.234 354.047C619.245 353.682 618.255 353.448 617.266 353.344C616.328 353.24 615.339 353.188 614.297 353.188C611.38 353.188 608.62 353.734 606.016 354.828C603.464 355.87 601.224 357.38 599.297 359.359C597.422 361.339 595.938 363.734 594.844 366.547C593.75 369.307 593.203 372.432 593.203 375.922C593.203 376.703 593.229 377.589 593.281 378.578C593.385 379.568 593.516 380.583 593.672 381.625C593.88 382.615 594.115 383.578 594.375 384.516C594.635 385.453 594.974 386.286 595.391 387.016L620.234 354.047ZM613.672 325.219L604.844 313.578L628.047 291.938L640.859 308.266L613.672 325.219ZM766.484 418.5H745.234V365.375C745.234 363.917 744.948 362.536 744.375 361.234C743.854 359.932 743.099 358.786 742.109 357.797C741.12 356.807 739.974 356.052 738.672 355.531C737.37 354.958 735.99 354.672 734.531 354.672C733.073 354.672 731.693 354.958 730.391 355.531C729.141 356.052 728.021 356.807 727.031 357.797C726.094 358.786 725.339 359.932 724.766 361.234C724.245 362.536 723.984 363.917 723.984 365.375V418.5H702.656V365.375C702.656 363.917 702.37 362.536 701.797 361.234C701.276 359.932 700.521 358.786 699.531 357.797C698.542 356.807 697.396 356.052 696.094 355.531C694.792 354.958 693.411 354.672 691.953 354.672C690.495 354.672 689.115 354.958 687.812 355.531C686.562 356.052 685.443 356.807 684.453 357.797C683.516 358.786 682.76 359.932 682.188 361.234C681.667 362.536 681.406 363.917 681.406 365.375V418.5H660.078V334.828H665.234L671.016 341.234C673.984 338.734 677.24 336.807 680.781 335.453C684.375 334.047 688.099 333.344 691.953 333.344C695.859 333.344 699.661 334.073 703.359 335.531C707.109 336.99 710.391 339.516 713.203 343.109C714.505 341.339 715.99 339.828 717.656 338.578C719.323 337.328 721.068 336.312 722.891 335.531C724.766 334.75 726.693 334.203 728.672 333.891C730.651 333.526 732.604 333.344 734.531 333.344C738.958 333.344 743.099 334.177 746.953 335.844C750.859 337.51 754.245 339.802 757.109 342.719C760.026 345.583 762.318 348.969 763.984 352.875C765.651 356.781 766.484 360.948 766.484 365.375V418.5ZM862.969 375.922C862.969 382.172 861.849 388.005 859.609 393.422C857.37 398.786 854.323 403.448 850.469 407.406C846.615 411.312 842.083 414.411 836.875 416.703C831.719 418.943 826.172 420.062 820.234 420.062C814.349 420.062 808.802 418.943 803.594 416.703C798.438 414.411 793.906 411.312 790 407.406C786.146 403.448 783.099 398.786 780.859 393.422C778.62 388.005 777.5 382.172 777.5 375.922C777.5 369.568 778.62 363.682 780.859 358.266C783.099 352.849 786.146 348.188 790 344.281C793.906 340.323 798.438 337.224 803.594 334.984C808.802 332.745 814.349 331.625 820.234 331.625C826.172 331.625 831.719 332.693 836.875 334.828C842.083 336.911 846.615 339.906 850.469 343.812C854.323 347.667 857.37 352.328 859.609 357.797C861.849 363.214 862.969 369.255 862.969 375.922ZM841.484 375.922C841.484 372.484 840.911 369.385 839.766 366.625C838.672 363.812 837.161 361.417 835.234 359.438C833.307 357.406 831.042 355.87 828.438 354.828C825.885 353.734 823.151 353.188 820.234 353.188C817.318 353.188 814.557 353.734 811.953 354.828C809.401 355.87 807.161 357.406 805.234 359.438C803.359 361.417 801.875 363.812 800.781 366.625C799.688 369.385 799.141 372.484 799.141 375.922C799.141 379.151 799.688 382.146 800.781 384.906C801.875 387.667 803.359 390.062 805.234 392.094C807.161 394.125 809.401 395.74 811.953 396.938C814.557 398.083 817.318 398.656 820.234 398.656C823.151 398.656 825.885 398.109 828.438 397.016C831.042 395.922 833.307 394.385 835.234 392.406C837.161 390.427 838.672 388.031 839.766 385.219C840.911 382.406 841.484 379.307 841.484 375.922ZM896.094 418.5H874.766V334.828H879.922L886.953 342.953C890.391 339.828 894.271 337.432 898.594 335.766C902.969 334.047 907.526 333.188 912.266 333.188C917.37 333.188 922.188 334.177 926.719 336.156C931.25 338.083 935.208 340.766 938.594 344.203C941.979 347.589 944.635 351.573 946.562 356.156C948.542 360.688 949.531 365.531 949.531 370.688V418.5H928.203V370.688C928.203 368.5 927.786 366.443 926.953 364.516C926.12 362.536 924.974 360.818 923.516 359.359C922.057 357.901 920.365 356.755 918.438 355.922C916.51 355.089 914.453 354.672 912.266 354.672C910.026 354.672 907.917 355.089 905.938 355.922C903.958 356.755 902.24 357.901 900.781 359.359C899.323 360.818 898.177 362.536 897.344 364.516C896.51 366.443 896.094 368.5 896.094 370.688V418.5ZM1034.3 328.891V373.734H1056.72C1059.79 373.734 1062.68 373.161 1065.39 372.016C1068.1 370.818 1070.47 369.203 1072.5 367.172C1074.53 365.141 1076.12 362.771 1077.27 360.062C1078.46 357.302 1079.06 354.385 1079.06 351.312C1079.06 348.24 1078.46 345.349 1077.27 342.641C1076.12 339.88 1074.53 337.484 1072.5 335.453C1070.47 333.422 1068.1 331.833 1065.39 330.688C1062.68 329.49 1059.79 328.891 1056.72 328.891H1034.3ZM1034.3 418.5H1011.88V306.469H1056.72C1060.83 306.469 1064.79 307.016 1068.59 308.109C1072.4 309.151 1075.94 310.661 1079.22 312.641C1082.55 314.568 1085.57 316.911 1088.28 319.672C1091.04 322.38 1093.39 325.401 1095.31 328.734C1097.29 332.068 1098.8 335.635 1099.84 339.438C1100.94 343.24 1101.48 347.198 1101.48 351.312C1101.48 355.167 1100.99 358.917 1100 362.562C1099.06 366.208 1097.68 369.672 1095.86 372.953C1094.09 376.234 1091.9 379.255 1089.3 382.016C1086.69 384.776 1083.78 387.172 1080.55 389.203L1092.97 418.5H1069.14L1059.38 395.922L1034.3 396.078V418.5ZM1193.91 375.922C1193.91 382.172 1192.79 388.005 1190.55 393.422C1188.31 398.786 1185.26 403.448 1181.41 407.406C1177.55 411.312 1173.02 414.411 1167.81 416.703C1162.66 418.943 1157.11 420.062 1151.17 420.062C1145.29 420.062 1139.74 418.943 1134.53 416.703C1129.38 414.411 1124.84 411.312 1120.94 407.406C1117.08 403.448 1114.04 398.786 1111.8 393.422C1109.56 388.005 1108.44 382.172 1108.44 375.922C1108.44 369.568 1109.56 363.682 1111.8 358.266C1114.04 352.849 1117.08 348.188 1120.94 344.281C1124.84 340.323 1129.38 337.224 1134.53 334.984C1139.74 332.745 1145.29 331.625 1151.17 331.625C1157.11 331.625 1162.66 332.693 1167.81 334.828C1173.02 336.911 1177.55 339.906 1181.41 343.812C1185.26 347.667 1188.31 352.328 1190.55 357.797C1192.79 363.214 1193.91 369.255 1193.91 375.922ZM1172.42 375.922C1172.42 372.484 1171.85 369.385 1170.7 366.625C1169.61 363.812 1168.1 361.417 1166.17 359.438C1164.24 357.406 1161.98 355.87 1159.38 354.828C1156.82 353.734 1154.09 353.188 1151.17 353.188C1148.26 353.188 1145.49 353.734 1142.89 354.828C1140.34 355.87 1138.1 357.406 1136.17 359.438C1134.3 361.417 1132.81 363.812 1131.72 366.625C1130.62 369.385 1130.08 372.484 1130.08 375.922C1130.08 379.151 1130.62 382.146 1131.72 384.906C1132.81 387.667 1134.3 390.062 1136.17 392.094C1138.1 394.125 1140.34 395.74 1142.89 396.938C1145.49 398.083 1148.26 398.656 1151.17 398.656C1154.09 398.656 1156.82 398.109 1159.38 397.016C1161.98 395.922 1164.24 394.385 1166.17 392.406C1168.1 390.427 1169.61 388.031 1170.7 385.219C1171.85 382.406 1172.42 379.307 1172.42 375.922ZM1267.19 408.734C1265.47 410.297 1263.62 411.781 1261.64 413.188C1259.71 414.542 1257.68 415.74 1255.55 416.781C1253.41 417.771 1251.2 418.552 1248.91 419.125C1246.67 419.75 1244.38 420.062 1242.03 420.062C1236.88 420.062 1232.03 419.151 1227.5 417.328C1222.97 415.505 1218.98 412.927 1215.55 409.594C1212.16 406.208 1209.48 402.12 1207.5 397.328C1205.57 392.484 1204.61 387.068 1204.61 381.078V334.828H1225.86V381.078C1225.86 383.891 1226.28 386.417 1227.11 388.656C1227.99 390.844 1229.17 392.693 1230.62 394.203C1232.08 395.714 1233.78 396.859 1235.7 397.641C1237.68 398.422 1239.79 398.812 1242.03 398.812C1244.22 398.812 1246.28 398.318 1248.2 397.328C1250.18 396.286 1251.9 394.932 1253.36 393.266C1254.82 391.599 1255.96 389.724 1256.8 387.641C1257.63 385.505 1258.05 383.318 1258.05 381.078V334.828H1279.38V418.5H1274.22L1267.19 408.734ZM1317.19 418.5H1295.7V301.547H1317.19V418.5ZM1366.8 398.031C1367.63 398.292 1368.46 398.474 1369.3 398.578C1370.13 398.63 1370.96 398.656 1371.8 398.656C1373.88 398.656 1375.89 398.37 1377.81 397.797C1379.74 397.224 1381.54 396.417 1383.2 395.375C1384.92 394.281 1386.43 392.979 1387.73 391.469C1389.09 389.906 1390.18 388.188 1391.02 386.312L1406.64 402.016C1404.66 404.828 1402.37 407.354 1399.77 409.594C1397.21 411.833 1394.43 413.734 1391.41 415.297C1388.44 416.859 1385.29 418.031 1381.95 418.812C1378.67 419.646 1375.29 420.062 1371.8 420.062C1365.91 420.062 1360.36 418.969 1355.16 416.781C1350 414.594 1345.47 411.547 1341.56 407.641C1337.71 403.734 1334.66 399.099 1332.42 393.734C1330.18 388.318 1329.06 382.38 1329.06 375.922C1329.06 369.307 1330.18 363.266 1332.42 357.797C1334.66 352.328 1337.71 347.667 1341.56 343.812C1345.47 339.958 1350 336.964 1355.16 334.828C1360.36 332.693 1365.91 331.625 1371.8 331.625C1375.29 331.625 1378.7 332.042 1382.03 332.875C1385.36 333.708 1388.52 334.906 1391.48 336.469C1394.51 338.031 1397.32 339.958 1399.92 342.25C1402.53 344.49 1404.82 347.016 1406.8 349.828L1366.8 398.031ZM1377.73 354.047C1376.74 353.682 1375.76 353.448 1374.77 353.344C1373.83 353.24 1372.84 353.188 1371.8 353.188C1368.88 353.188 1366.12 353.734 1363.52 354.828C1360.96 355.87 1358.72 357.38 1356.8 359.359C1354.92 361.339 1353.44 363.734 1352.34 366.547C1351.25 369.307 1350.7 372.432 1350.7 375.922C1350.7 376.703 1350.73 377.589 1350.78 378.578C1350.89 379.568 1351.02 380.583 1351.17 381.625C1351.38 382.615 1351.61 383.578 1351.88 384.516C1352.14 385.453 1352.47 386.286 1352.89 387.016L1377.73 354.047ZM1459.53 418.5C1454.38 418.5 1449.53 417.536 1445 415.609C1440.47 413.63 1436.48 410.948 1433.05 407.562C1429.66 404.125 1426.98 400.141 1425 395.609C1423.07 391.078 1422.11 386.234 1422.11 381.078V356.234H1411.72V334.984H1422.11V301.547H1443.36V334.984H1475.7V356.234H1443.36V381.078C1443.36 383.318 1443.78 385.427 1444.61 387.406C1445.44 389.333 1446.59 391.026 1448.05 392.484C1449.51 393.943 1451.22 395.115 1453.2 396C1455.18 396.833 1457.29 397.25 1459.53 397.25H1475.7V418.5H1459.53ZM1529.69 418.5C1524.53 418.5 1519.69 417.536 1515.16 415.609C1510.62 413.63 1506.64 410.948 1503.2 407.562C1499.82 404.125 1497.14 400.141 1495.16 395.609C1493.23 391.078 1492.27 386.234 1492.27 381.078V356.234H1481.88V334.984H1492.27V301.547H1513.52V334.984H1545.86V356.234H1513.52V381.078C1513.52 383.318 1513.93 385.427 1514.77 387.406C1515.6 389.333 1516.74 391.026 1518.2 392.484C1519.66 393.943 1521.38 395.115 1523.36 396C1525.34 396.833 1527.45 397.25 1529.69 397.25H1545.86V418.5H1529.69ZM1591.17 398.031C1592.01 398.292 1592.84 398.474 1593.67 398.578C1594.51 398.63 1595.34 398.656 1596.17 398.656C1598.26 398.656 1600.26 398.37 1602.19 397.797C1604.11 397.224 1605.91 396.417 1607.58 395.375C1609.3 394.281 1610.81 392.979 1612.11 391.469C1613.46 389.906 1614.56 388.188 1615.39 386.312L1631.02 402.016C1629.04 404.828 1626.74 407.354 1624.14 409.594C1621.59 411.833 1618.8 413.734 1615.78 415.297C1612.81 416.859 1609.66 418.031 1606.33 418.812C1603.05 419.646 1599.66 420.062 1596.17 420.062C1590.29 420.062 1584.74 418.969 1579.53 416.781C1574.38 414.594 1569.84 411.547 1565.94 407.641C1562.08 403.734 1559.04 399.099 1556.8 393.734C1554.56 388.318 1553.44 382.38 1553.44 375.922C1553.44 369.307 1554.56 363.266 1556.8 357.797C1559.04 352.328 1562.08 347.667 1565.94 343.812C1569.84 339.958 1574.38 336.964 1579.53 334.828C1584.74 332.693 1590.29 331.625 1596.17 331.625C1599.66 331.625 1603.07 332.042 1606.41 332.875C1609.74 333.708 1612.89 334.906 1615.86 336.469C1618.88 338.031 1621.69 339.958 1624.3 342.25C1626.9 344.49 1629.19 347.016 1631.17 349.828L1591.17 398.031ZM1602.11 354.047C1601.12 353.682 1600.13 353.448 1599.14 353.344C1598.2 353.24 1597.21 353.188 1596.17 353.188C1593.26 353.188 1590.49 353.734 1587.89 354.828C1585.34 355.87 1583.1 357.38 1581.17 359.359C1579.3 361.339 1577.81 363.734 1576.72 366.547C1575.62 369.307 1575.08 372.432 1575.08 375.922C1575.08 376.703 1575.1 377.589 1575.16 378.578C1575.26 379.568 1575.39 380.583 1575.55 381.625C1575.76 382.615 1575.99 383.578 1576.25 384.516C1576.51 385.453 1576.85 386.286 1577.27 387.016L1602.11 354.047Z" fill="black"/>
</svg>
