<svg width="2560" height="720" viewBox="0 0 2560 720" fill="none" xmlns="http://www.w3.org/2000/svg">
<rect width="2560" height="720" fill="#FFCB05"/>
<path d="M318.477 312.586V379.852H352.109C356.719 379.852 361.055 378.992 365.117 377.273C369.18 375.477 372.734 373.055 375.781 370.008C378.828 366.961 381.211 363.406 382.93 359.344C384.727 355.203 385.625 350.828 385.625 346.219C385.625 341.609 384.727 337.273 382.93 333.211C381.211 329.07 378.828 325.477 375.781 322.43C372.734 319.383 369.18 317 365.117 315.281C361.055 313.484 356.719 312.586 352.109 312.586H318.477ZM318.477 447H284.844V278.953H352.109C358.281 278.953 364.219 279.773 369.922 281.414C375.625 282.977 380.938 285.242 385.859 288.211C390.859 291.102 395.391 294.617 399.453 298.758C403.594 302.82 407.109 307.352 410 312.352C412.969 317.352 415.234 322.703 416.797 328.406C418.438 334.109 419.258 340.047 419.258 346.219C419.258 355.438 417.5 364.148 413.984 372.352C410.469 380.477 405.664 387.586 399.57 393.68C393.477 399.773 386.328 404.578 378.125 408.094C370 411.609 361.328 413.367 352.109 413.367H318.477V447ZM556.953 383.133C556.953 392.508 555.273 401.258 551.914 409.383C548.555 417.43 543.984 424.422 538.203 430.359C532.422 436.219 525.625 440.867 517.812 444.305C510.078 447.664 501.758 449.344 492.852 449.344C484.023 449.344 475.703 447.664 467.891 444.305C460.156 440.867 453.359 436.219 447.5 430.359C441.719 424.422 437.148 417.43 433.789 409.383C430.43 401.258 428.75 392.508 428.75 383.133C428.75 373.602 430.43 364.773 433.789 356.648C437.148 348.523 441.719 341.531 447.5 335.672C453.359 329.734 460.156 325.086 467.891 321.727C475.703 318.367 484.023 316.688 492.852 316.688C501.758 316.688 510.078 318.289 517.812 321.492C525.625 324.617 532.422 329.109 538.203 334.969C543.984 340.75 548.555 347.742 551.914 355.945C555.273 364.07 556.953 373.133 556.953 383.133ZM524.727 383.133C524.727 377.977 523.867 373.328 522.148 369.188C520.508 364.969 518.242 361.375 515.352 358.406C512.461 355.359 509.062 353.055 505.156 351.492C501.328 349.852 497.227 349.031 492.852 349.031C488.477 349.031 484.336 349.852 480.43 351.492C476.602 353.055 473.242 355.359 470.352 358.406C467.539 361.375 465.312 364.969 463.672 369.188C462.031 373.328 461.211 377.977 461.211 383.133C461.211 387.977 462.031 392.469 463.672 396.609C465.312 400.75 467.539 404.344 470.352 407.391C473.242 410.438 476.602 412.859 480.43 414.656C484.336 416.375 488.477 417.234 492.852 417.234C497.227 417.234 501.328 416.414 505.156 414.773C509.062 413.133 512.461 410.828 515.352 407.859C518.242 404.891 520.508 401.297 522.148 397.078C523.867 392.859 524.727 388.211 524.727 383.133ZM606.875 447H574.648V271.57H606.875V382.195L654.57 321.727H691.367L649.766 373.992L691.367 447H654.57L629.141 401.414L606.875 430.945V447ZM753.945 416.297C755.195 416.688 756.445 416.961 757.695 417.117C758.945 417.195 760.195 417.234 761.445 417.234C764.57 417.234 767.578 416.805 770.469 415.945C773.359 415.086 776.055 413.875 778.555 412.312C781.133 410.672 783.398 408.719 785.352 406.453C787.383 404.109 789.023 401.531 790.273 398.719L813.711 422.273C810.742 426.492 807.305 430.281 803.398 433.641C799.57 437 795.391 439.852 790.859 442.195C786.406 444.539 781.68 446.297 776.68 447.469C771.758 448.719 766.68 449.344 761.445 449.344C752.617 449.344 744.297 447.703 736.484 444.422C728.75 441.141 721.953 436.57 716.094 430.711C710.312 424.852 705.742 417.898 702.383 409.852C699.023 401.727 697.344 392.82 697.344 383.133C697.344 373.211 699.023 364.148 702.383 355.945C705.742 347.742 710.312 340.75 716.094 334.969C721.953 329.188 728.75 324.695 736.484 321.492C744.297 318.289 752.617 316.688 761.445 316.688C766.68 316.688 771.797 317.312 776.797 318.562C781.797 319.812 786.523 321.609 790.977 323.953C795.508 326.297 799.727 329.188 803.633 332.625C807.539 335.984 810.977 339.773 813.945 343.992L753.945 416.297ZM770.352 350.32C768.867 349.773 767.383 349.422 765.898 349.266C764.492 349.109 763.008 349.031 761.445 349.031C757.07 349.031 752.93 349.852 749.023 351.492C745.195 353.055 741.836 355.32 738.945 358.289C736.133 361.258 733.906 364.852 732.266 369.07C730.625 373.211 729.805 377.898 729.805 383.133C729.805 384.305 729.844 385.633 729.922 387.117C730.078 388.602 730.273 390.125 730.508 391.688C730.82 393.172 731.172 394.617 731.562 396.023C731.953 397.43 732.461 398.68 733.086 399.773L770.352 350.32ZM760.508 307.078L747.266 289.617L782.07 257.156L801.289 281.648L760.508 307.078ZM989.727 447H957.852V367.312C957.852 365.125 957.422 363.055 956.562 361.102C955.781 359.148 954.648 357.43 953.164 355.945C951.68 354.461 949.961 353.328 948.008 352.547C946.055 351.688 943.984 351.258 941.797 351.258C939.609 351.258 937.539 351.688 935.586 352.547C933.711 353.328 932.031 354.461 930.547 355.945C929.141 357.43 928.008 359.148 927.148 361.102C926.367 363.055 925.977 365.125 925.977 367.312V447H893.984V367.312C893.984 365.125 893.555 363.055 892.695 361.102C891.914 359.148 890.781 357.43 889.297 355.945C887.812 354.461 886.094 353.328 884.141 352.547C882.188 351.688 880.117 351.258 877.93 351.258C875.742 351.258 873.672 351.688 871.719 352.547C869.844 353.328 868.164 354.461 866.68 355.945C865.273 357.43 864.141 359.148 863.281 361.102C862.5 363.055 862.109 365.125 862.109 367.312V447H830.117V321.492H837.852L846.523 331.102C850.977 327.352 855.859 324.461 861.172 322.43C866.562 320.32 872.148 319.266 877.93 319.266C883.789 319.266 889.492 320.359 895.039 322.547C900.664 324.734 905.586 328.523 909.805 333.914C911.758 331.258 913.984 328.992 916.484 327.117C918.984 325.242 921.602 323.719 924.336 322.547C927.148 321.375 930.039 320.555 933.008 320.086C935.977 319.539 938.906 319.266 941.797 319.266C948.438 319.266 954.648 320.516 960.43 323.016C966.289 325.516 971.367 328.953 975.664 333.328C980.039 337.625 983.477 342.703 985.977 348.562C988.477 354.422 989.727 360.672 989.727 367.312V447ZM1134.45 383.133C1134.45 392.508 1132.77 401.258 1129.41 409.383C1126.05 417.43 1121.48 424.422 1115.7 430.359C1109.92 436.219 1103.12 440.867 1095.31 444.305C1087.58 447.664 1079.26 449.344 1070.35 449.344C1061.52 449.344 1053.2 447.664 1045.39 444.305C1037.66 440.867 1030.86 436.219 1025 430.359C1019.22 424.422 1014.65 417.43 1011.29 409.383C1007.93 401.258 1006.25 392.508 1006.25 383.133C1006.25 373.602 1007.93 364.773 1011.29 356.648C1014.65 348.523 1019.22 341.531 1025 335.672C1030.86 329.734 1037.66 325.086 1045.39 321.727C1053.2 318.367 1061.52 316.688 1070.35 316.688C1079.26 316.688 1087.58 318.289 1095.31 321.492C1103.12 324.617 1109.92 329.109 1115.7 334.969C1121.48 340.75 1126.05 347.742 1129.41 355.945C1132.77 364.07 1134.45 373.133 1134.45 383.133ZM1102.23 383.133C1102.23 377.977 1101.37 373.328 1099.65 369.188C1098.01 364.969 1095.74 361.375 1092.85 358.406C1089.96 355.359 1086.56 353.055 1082.66 351.492C1078.83 349.852 1074.73 349.031 1070.35 349.031C1065.98 349.031 1061.84 349.852 1057.93 351.492C1054.1 353.055 1050.74 355.359 1047.85 358.406C1045.04 361.375 1042.81 364.969 1041.17 369.188C1039.53 373.328 1038.71 377.977 1038.71 383.133C1038.71 387.977 1039.53 392.469 1041.17 396.609C1042.81 400.75 1045.04 404.344 1047.85 407.391C1050.74 410.438 1054.1 412.859 1057.93 414.656C1061.84 416.375 1065.98 417.234 1070.35 417.234C1074.73 417.234 1078.83 416.414 1082.66 414.773C1086.56 413.133 1089.96 410.828 1092.85 407.859C1095.74 404.891 1098.01 401.297 1099.65 397.078C1101.37 392.859 1102.23 388.211 1102.23 383.133ZM1184.14 447H1152.15V321.492H1159.88L1170.43 333.68C1175.59 328.992 1181.41 325.398 1187.89 322.898C1194.45 320.32 1201.29 319.031 1208.4 319.031C1216.05 319.031 1223.28 320.516 1230.08 323.484C1236.88 326.375 1242.81 330.398 1247.89 335.555C1252.97 340.633 1256.95 346.609 1259.84 353.484C1262.81 360.281 1264.3 367.547 1264.3 375.281V447H1232.3V375.281C1232.3 372 1231.68 368.914 1230.43 366.023C1229.18 363.055 1227.46 360.477 1225.27 358.289C1223.09 356.102 1220.55 354.383 1217.66 353.133C1214.77 351.883 1211.68 351.258 1208.4 351.258C1205.04 351.258 1201.88 351.883 1198.91 353.133C1195.94 354.383 1193.36 356.102 1191.17 358.289C1188.98 360.477 1187.27 363.055 1186.02 366.023C1184.77 368.914 1184.14 372 1184.14 375.281V447ZM1391.45 312.586V379.852H1425.08C1429.69 379.852 1434.02 378.992 1438.09 377.273C1442.15 375.477 1445.7 373.055 1448.75 370.008C1451.8 366.961 1454.18 363.406 1455.9 359.344C1457.7 355.203 1458.59 350.828 1458.59 346.219C1458.59 341.609 1457.7 337.273 1455.9 333.211C1454.18 329.07 1451.8 325.477 1448.75 322.43C1445.7 319.383 1442.15 317 1438.09 315.281C1434.02 313.484 1429.69 312.586 1425.08 312.586H1391.45ZM1391.45 447H1357.81V278.953H1425.08C1431.25 278.953 1437.19 279.773 1442.89 281.414C1448.59 282.977 1453.91 285.242 1458.83 288.211C1463.83 291.102 1468.36 294.617 1472.42 298.758C1476.56 302.82 1480.08 307.352 1482.97 312.352C1485.94 317.352 1488.2 322.703 1489.77 328.406C1491.41 334.109 1492.23 340.047 1492.23 346.219C1492.23 352 1491.48 357.625 1490 363.094C1488.59 368.562 1486.52 373.758 1483.79 378.68C1481.13 383.602 1477.85 388.133 1473.95 392.273C1470.04 396.414 1465.66 400.008 1460.82 403.055L1479.45 447H1443.71L1429.06 413.133L1391.45 413.367V447ZM1630.86 383.133C1630.86 392.508 1629.18 401.258 1625.82 409.383C1622.46 417.43 1617.89 424.422 1612.11 430.359C1606.33 436.219 1599.53 440.867 1591.72 444.305C1583.98 447.664 1575.66 449.344 1566.76 449.344C1557.93 449.344 1549.61 447.664 1541.8 444.305C1534.06 440.867 1527.27 436.219 1521.41 430.359C1515.62 424.422 1511.05 417.43 1507.7 409.383C1504.34 401.258 1502.66 392.508 1502.66 383.133C1502.66 373.602 1504.34 364.773 1507.7 356.648C1511.05 348.523 1515.62 341.531 1521.41 335.672C1527.27 329.734 1534.06 325.086 1541.8 321.727C1549.61 318.367 1557.93 316.688 1566.76 316.688C1575.66 316.688 1583.98 318.289 1591.72 321.492C1599.53 324.617 1606.33 329.109 1612.11 334.969C1617.89 340.75 1622.46 347.742 1625.82 355.945C1629.18 364.07 1630.86 373.133 1630.86 383.133ZM1598.63 383.133C1598.63 377.977 1597.77 373.328 1596.05 369.188C1594.41 364.969 1592.15 361.375 1589.26 358.406C1586.37 355.359 1582.97 353.055 1579.06 351.492C1575.23 349.852 1571.13 349.031 1566.76 349.031C1562.38 349.031 1558.24 349.852 1554.34 351.492C1550.51 353.055 1547.15 355.359 1544.26 358.406C1541.45 361.375 1539.22 364.969 1537.58 369.188C1535.94 373.328 1535.12 377.977 1535.12 383.133C1535.12 387.977 1535.94 392.469 1537.58 396.609C1539.22 400.75 1541.45 404.344 1544.26 407.391C1547.15 410.438 1550.51 412.859 1554.34 414.656C1558.24 416.375 1562.38 417.234 1566.76 417.234C1571.13 417.234 1575.23 416.414 1579.06 414.773C1582.97 413.133 1586.37 410.828 1589.26 407.859C1592.15 404.891 1594.41 401.297 1596.05 397.078C1597.77 392.859 1598.63 388.211 1598.63 383.133ZM1740.78 432.352C1738.2 434.695 1735.43 436.922 1732.46 439.031C1729.57 441.062 1726.52 442.859 1723.32 444.422C1720.12 445.906 1716.8 447.078 1713.36 447.938C1710 448.875 1706.56 449.344 1703.05 449.344C1695.31 449.344 1688.05 447.977 1681.25 445.242C1674.45 442.508 1668.48 438.641 1663.32 433.641C1658.24 428.562 1654.22 422.43 1651.25 415.242C1648.36 407.977 1646.91 399.852 1646.91 390.867V321.492H1678.79V390.867C1678.79 395.086 1679.41 398.875 1680.66 402.234C1681.99 405.516 1683.75 408.289 1685.94 410.555C1688.12 412.82 1690.66 414.539 1693.55 415.711C1696.52 416.883 1699.69 417.469 1703.05 417.469C1706.33 417.469 1709.41 416.727 1712.3 415.242C1715.27 413.68 1717.85 411.648 1720.04 409.148C1722.23 406.648 1723.95 403.836 1725.2 400.711C1726.45 397.508 1727.07 394.227 1727.07 390.867V321.492H1759.06V447H1751.33L1740.78 432.352ZM1815.78 447H1783.55V271.57H1815.78V447ZM1890.2 416.297C1891.45 416.688 1892.7 416.961 1893.95 417.117C1895.2 417.195 1896.45 417.234 1897.7 417.234C1900.82 417.234 1903.83 416.805 1906.72 415.945C1909.61 415.086 1912.3 413.875 1914.8 412.312C1917.38 410.672 1919.65 408.719 1921.6 406.453C1923.63 404.109 1925.27 401.531 1926.52 398.719L1949.96 422.273C1946.99 426.492 1943.55 430.281 1939.65 433.641C1935.82 437 1931.64 439.852 1927.11 442.195C1922.66 444.539 1917.93 446.297 1912.93 447.469C1908.01 448.719 1902.93 449.344 1897.7 449.344C1888.87 449.344 1880.55 447.703 1872.73 444.422C1865 441.141 1858.2 436.57 1852.34 430.711C1846.56 424.852 1841.99 417.898 1838.63 409.852C1835.27 401.727 1833.59 392.82 1833.59 383.133C1833.59 373.211 1835.27 364.148 1838.63 355.945C1841.99 347.742 1846.56 340.75 1852.34 334.969C1858.2 329.188 1865 324.695 1872.73 321.492C1880.55 318.289 1888.87 316.688 1897.7 316.688C1902.93 316.688 1908.05 317.312 1913.05 318.562C1918.05 319.812 1922.77 321.609 1927.23 323.953C1931.76 326.297 1935.98 329.188 1939.88 332.625C1943.79 335.984 1947.23 339.773 1950.2 343.992L1890.2 416.297ZM1906.6 350.32C1905.12 349.773 1903.63 349.422 1902.15 349.266C1900.74 349.109 1899.26 349.031 1897.7 349.031C1893.32 349.031 1889.18 349.852 1885.27 351.492C1881.45 353.055 1878.09 355.32 1875.2 358.289C1872.38 361.258 1870.16 364.852 1868.52 369.07C1866.88 373.211 1866.05 377.898 1866.05 383.133C1866.05 384.305 1866.09 385.633 1866.17 387.117C1866.33 388.602 1866.52 390.125 1866.76 391.688C1867.07 393.172 1867.42 394.617 1867.81 396.023C1868.2 397.43 1868.71 398.68 1869.34 399.773L1906.6 350.32ZM2029.3 447C2021.56 447 2014.3 445.555 2007.5 442.664C2000.7 439.695 1994.73 435.672 1989.57 430.594C1984.49 425.438 1980.47 419.461 1977.5 412.664C1974.61 405.867 1973.16 398.602 1973.16 390.867V353.602H1957.58V321.727H1973.16V271.57H2005.04V321.727H2053.55V353.602H2005.04V390.867C2005.04 394.227 2005.66 397.391 2006.91 400.359C2008.16 403.25 2009.88 405.789 2012.07 407.977C2014.26 410.164 2016.84 411.922 2019.8 413.25C2022.77 414.5 2025.94 415.125 2029.3 415.125H2053.55V447H2029.3ZM2134.53 447C2126.8 447 2119.53 445.555 2112.73 442.664C2105.94 439.695 2099.96 435.672 2094.8 430.594C2089.73 425.438 2085.7 419.461 2082.73 412.664C2079.84 405.867 2078.4 398.602 2078.4 390.867V353.602H2062.81V321.727H2078.4V271.57H2110.27V321.727H2158.79V353.602H2110.27V390.867C2110.27 394.227 2110.9 397.391 2112.15 400.359C2113.4 403.25 2115.12 405.789 2117.3 407.977C2119.49 410.164 2122.07 411.922 2125.04 413.25C2128.01 414.5 2131.17 415.125 2134.53 415.125H2158.79V447H2134.53ZM2226.76 416.297C2228.01 416.688 2229.26 416.961 2230.51 417.117C2231.76 417.195 2233.01 417.234 2234.26 417.234C2237.38 417.234 2240.39 416.805 2243.28 415.945C2246.17 415.086 2248.87 413.875 2251.37 412.312C2253.95 410.672 2256.21 408.719 2258.16 406.453C2260.2 404.109 2261.84 401.531 2263.09 398.719L2286.52 422.273C2283.55 426.492 2280.12 430.281 2276.21 433.641C2272.38 437 2268.2 439.852 2263.67 442.195C2259.22 444.539 2254.49 446.297 2249.49 447.469C2244.57 448.719 2239.49 449.344 2234.26 449.344C2225.43 449.344 2217.11 447.703 2209.3 444.422C2201.56 441.141 2194.77 436.57 2188.91 430.711C2183.12 424.852 2178.55 417.898 2175.2 409.852C2171.84 401.727 2170.16 392.82 2170.16 383.133C2170.16 373.211 2171.84 364.148 2175.2 355.945C2178.55 347.742 2183.12 340.75 2188.91 334.969C2194.77 329.188 2201.56 324.695 2209.3 321.492C2217.11 318.289 2225.43 316.688 2234.26 316.688C2239.49 316.688 2244.61 317.312 2249.61 318.562C2254.61 319.812 2259.34 321.609 2263.79 323.953C2268.32 326.297 2272.54 329.188 2276.45 332.625C2280.35 335.984 2283.79 339.773 2286.76 343.992L2226.76 416.297ZM2243.16 350.32C2241.68 349.773 2240.2 349.422 2238.71 349.266C2237.3 349.109 2235.82 349.031 2234.26 349.031C2229.88 349.031 2225.74 349.852 2221.84 351.492C2218.01 353.055 2214.65 355.32 2211.76 358.289C2208.95 361.258 2206.72 364.852 2205.08 369.07C2203.44 373.211 2202.62 377.898 2202.62 383.133C2202.62 384.305 2202.66 385.633 2202.73 387.117C2202.89 388.602 2203.09 390.125 2203.32 391.688C2203.63 393.172 2203.98 394.617 2204.38 396.023C2204.77 397.43 2205.27 398.68 2205.9 399.773L2243.16 350.32Z" fill="black"/>
</svg>
