<svg width="1920" height="720" viewBox="0 0 1920 720" fill="none" xmlns="http://www.w3.org/2000/svg">
<rect width="1920" height="720" fill="#3BA55D"/>
<path d="M775 306.469L738.203 418.5H715.781L679.141 306.469H704.609L726.953 381.234L749.375 306.469H775ZM871.406 306.469L834.609 418.5H812.188L775.547 306.469H801.016L823.359 381.234L845.781 306.469H871.406ZM953.594 375.922C953.594 382.172 952.474 388.005 950.234 393.422C947.995 398.786 944.948 403.448 941.094 407.406C937.24 411.312 932.708 414.411 927.5 416.703C922.344 418.943 916.797 420.062 910.859 420.062C904.974 420.062 899.427 418.943 894.219 416.703C889.062 414.411 884.531 411.312 880.625 407.406C876.771 403.448 873.724 398.786 871.484 393.422C869.245 388.005 868.125 382.172 868.125 375.922C868.125 369.568 869.245 363.682 871.484 358.266C873.724 352.849 876.771 348.188 880.625 344.281C884.531 340.323 889.062 337.224 894.219 334.984C899.427 332.745 904.974 331.625 910.859 331.625C916.797 331.625 922.344 332.693 927.5 334.828C932.708 336.911 937.24 339.906 941.094 343.812C944.948 347.667 947.995 352.328 950.234 357.797C952.474 363.214 953.594 369.255 953.594 375.922ZM932.109 375.922C932.109 372.484 931.536 369.385 930.391 366.625C929.297 363.812 927.786 361.417 925.859 359.438C923.932 357.406 921.667 355.87 919.062 354.828C916.51 353.734 913.776 353.188 910.859 353.188C907.943 353.188 905.182 353.734 902.578 354.828C900.026 355.87 897.786 357.406 895.859 359.438C893.984 361.417 892.5 363.812 891.406 366.625C890.312 369.385 889.766 372.484 889.766 375.922C889.766 379.151 890.312 382.146 891.406 384.906C892.5 387.667 893.984 390.062 895.859 392.094C897.786 394.125 900.026 395.74 902.578 396.938C905.182 398.083 907.943 398.656 910.859 398.656C913.776 398.656 916.51 398.109 919.062 397.016C921.667 395.922 923.932 394.385 925.859 392.406C927.786 390.427 929.297 388.031 930.391 385.219C931.536 382.406 932.109 379.307 932.109 375.922ZM986.719 418.5H965.391V334.828H970.547L977.578 344.75C981.016 341.625 984.922 339.229 989.297 337.562C993.672 335.844 998.203 334.984 1002.89 334.984H1021.72V356.234H1002.89C1000.65 356.234 998.542 356.651 996.562 357.484C994.583 358.318 992.865 359.464 991.406 360.922C989.948 362.38 988.802 364.099 987.969 366.078C987.135 368.057 986.719 370.167 986.719 372.406V418.5ZM1110.94 418.5H1105.78L1097.5 407.016C1095.47 408.839 1093.31 410.557 1091.02 412.172C1088.78 413.734 1086.41 415.115 1083.91 416.312C1081.41 417.458 1078.83 418.37 1076.17 419.047C1073.57 419.724 1070.91 420.062 1068.2 420.062C1062.32 420.062 1056.77 418.969 1051.56 416.781C1046.41 414.542 1041.88 411.469 1037.97 407.562C1034.11 403.604 1031.07 398.943 1028.83 393.578C1026.59 388.161 1025.47 382.276 1025.47 375.922C1025.47 369.62 1026.59 363.76 1028.83 358.344C1031.07 352.927 1034.11 348.24 1037.97 344.281C1041.88 340.323 1046.41 337.224 1051.56 334.984C1056.77 332.745 1062.32 331.625 1068.2 331.625C1070.08 331.625 1072.01 331.781 1073.98 332.094C1076.02 332.406 1077.97 332.927 1079.84 333.656C1081.77 334.333 1083.57 335.245 1085.23 336.391C1086.9 337.536 1088.31 338.943 1089.45 340.609V301.547H1110.94V418.5ZM1089.45 375.922C1089.45 373.005 1088.88 370.193 1087.73 367.484C1086.64 364.724 1085.13 362.302 1083.2 360.219C1081.28 358.083 1079.01 356.391 1076.41 355.141C1073.85 353.839 1071.12 353.188 1068.2 353.188C1065.29 353.188 1062.53 353.708 1059.92 354.75C1057.37 355.792 1055.13 357.302 1053.2 359.281C1051.33 361.208 1049.84 363.578 1048.75 366.391C1047.66 369.203 1047.11 372.38 1047.11 375.922C1047.11 378.995 1047.66 381.911 1048.75 384.672C1049.84 387.432 1051.33 389.854 1053.2 391.938C1055.13 394.021 1057.37 395.661 1059.92 396.859C1062.53 398.057 1065.29 398.656 1068.2 398.656C1071.12 398.656 1073.85 398.031 1076.41 396.781C1079.01 395.479 1081.28 393.786 1083.2 391.703C1085.13 389.568 1086.64 387.146 1087.73 384.438C1088.88 381.677 1089.45 378.839 1089.45 375.922ZM1148.75 418.5H1127.27V301.547H1148.75V418.5ZM1198.36 398.031C1199.19 398.292 1200.03 398.474 1200.86 398.578C1201.69 398.63 1202.53 398.656 1203.36 398.656C1205.44 398.656 1207.45 398.37 1209.38 397.797C1211.3 397.224 1213.1 396.417 1214.77 395.375C1216.48 394.281 1217.99 392.979 1219.3 391.469C1220.65 389.906 1221.74 388.188 1222.58 386.312L1238.2 402.016C1236.22 404.828 1233.93 407.354 1231.33 409.594C1228.78 411.833 1225.99 413.734 1222.97 415.297C1220 416.859 1216.85 418.031 1213.52 418.812C1210.23 419.646 1206.85 420.062 1203.36 420.062C1197.47 420.062 1191.93 418.969 1186.72 416.781C1181.56 414.594 1177.03 411.547 1173.12 407.641C1169.27 403.734 1166.22 399.099 1163.98 393.734C1161.74 388.318 1160.62 382.38 1160.62 375.922C1160.62 369.307 1161.74 363.266 1163.98 357.797C1166.22 352.328 1169.27 347.667 1173.12 343.812C1177.03 339.958 1181.56 336.964 1186.72 334.828C1191.93 332.693 1197.47 331.625 1203.36 331.625C1206.85 331.625 1210.26 332.042 1213.59 332.875C1216.93 333.708 1220.08 334.906 1223.05 336.469C1226.07 338.031 1228.88 339.958 1231.48 342.25C1234.09 344.49 1236.38 347.016 1238.36 349.828L1198.36 398.031ZM1209.3 354.047C1208.31 353.682 1207.32 353.448 1206.33 353.344C1205.39 353.24 1204.4 353.188 1203.36 353.188C1200.44 353.188 1197.68 353.734 1195.08 354.828C1192.53 355.87 1190.29 357.38 1188.36 359.359C1186.48 361.339 1185 363.734 1183.91 366.547C1182.81 369.307 1182.27 372.432 1182.27 375.922C1182.27 376.703 1182.29 377.589 1182.34 378.578C1182.45 379.568 1182.58 380.583 1182.73 381.625C1182.94 382.615 1183.18 383.578 1183.44 384.516C1183.7 385.453 1184.04 386.286 1184.45 387.016L1209.3 354.047Z" fill="black"/>
</svg>
