<svg width="2560" height="720" viewBox="0 0 2560 720" fill="none" xmlns="http://www.w3.org/2000/svg">
<rect width="2560" height="720" fill="#3BA55D"/>
<path d="M1002.5 278.953L947.305 447H913.672L858.711 278.953H896.914L930.43 391.102L964.062 278.953H1002.5ZM1147.11 278.953L1091.91 447H1058.28L1003.32 278.953H1041.52L1075.04 391.102L1108.67 278.953H1147.11ZM1270.39 383.133C1270.39 392.508 1268.71 401.258 1265.35 409.383C1261.99 417.43 1257.42 424.422 1251.64 430.359C1245.86 436.219 1239.06 440.867 1231.25 444.305C1223.52 447.664 1215.2 449.344 1206.29 449.344C1197.46 449.344 1189.14 447.664 1181.33 444.305C1173.59 440.867 1166.8 436.219 1160.94 430.359C1155.16 424.422 1150.59 417.43 1147.23 409.383C1143.87 401.258 1142.19 392.508 1142.19 383.133C1142.19 373.602 1143.87 364.773 1147.23 356.648C1150.59 348.523 1155.16 341.531 1160.94 335.672C1166.8 329.734 1173.59 325.086 1181.33 321.727C1189.14 318.367 1197.46 316.688 1206.29 316.688C1215.2 316.688 1223.52 318.289 1231.25 321.492C1239.06 324.617 1245.86 329.109 1251.64 334.969C1257.42 340.75 1261.99 347.742 1265.35 355.945C1268.71 364.07 1270.39 373.133 1270.39 383.133ZM1238.16 383.133C1238.16 377.977 1237.3 373.328 1235.59 369.188C1233.95 364.969 1231.68 361.375 1228.79 358.406C1225.9 355.359 1222.5 353.055 1218.59 351.492C1214.77 349.852 1210.66 349.031 1206.29 349.031C1201.91 349.031 1197.77 349.852 1193.87 351.492C1190.04 353.055 1186.68 355.359 1183.79 358.406C1180.98 361.375 1178.75 364.969 1177.11 369.188C1175.47 373.328 1174.65 377.977 1174.65 383.133C1174.65 387.977 1175.47 392.469 1177.11 396.609C1178.75 400.75 1180.98 404.344 1183.79 407.391C1186.68 410.438 1190.04 412.859 1193.87 414.656C1197.77 416.375 1201.91 417.234 1206.29 417.234C1210.66 417.234 1214.77 416.414 1218.59 414.773C1222.5 413.133 1225.9 410.828 1228.79 407.859C1231.68 404.891 1233.95 401.297 1235.59 397.078C1237.3 392.859 1238.16 388.211 1238.16 383.133ZM1320.08 447H1288.09V321.492H1295.82L1306.37 336.375C1311.52 331.688 1317.38 328.094 1323.95 325.594C1330.51 323.016 1337.3 321.727 1344.34 321.727H1372.58V353.602H1344.34C1340.98 353.602 1337.81 354.227 1334.84 355.477C1331.88 356.727 1329.3 358.445 1327.11 360.633C1324.92 362.82 1323.2 365.398 1321.95 368.367C1320.7 371.336 1320.08 374.5 1320.08 377.859V447ZM1506.41 447H1498.67L1486.25 429.773C1483.2 432.508 1479.96 435.086 1476.52 437.508C1473.16 439.852 1469.61 441.922 1465.86 443.719C1462.11 445.438 1458.24 446.805 1454.26 447.82C1450.35 448.836 1446.37 449.344 1442.3 449.344C1433.48 449.344 1425.16 447.703 1417.34 444.422C1409.61 441.062 1402.81 436.453 1396.95 430.594C1391.17 424.656 1386.6 417.664 1383.24 409.617C1379.88 401.492 1378.2 392.664 1378.2 383.133C1378.2 373.68 1379.88 364.891 1383.24 356.766C1386.6 348.641 1391.17 341.609 1396.95 335.672C1402.81 329.734 1409.61 325.086 1417.34 321.727C1425.16 318.367 1433.48 316.688 1442.3 316.688C1445.12 316.688 1448.01 316.922 1450.98 317.391C1454.02 317.859 1456.95 318.641 1459.77 319.734C1462.66 320.75 1465.35 322.117 1467.85 323.836C1470.35 325.555 1472.46 327.664 1474.18 330.164V271.57H1506.41V447ZM1474.18 383.133C1474.18 378.758 1473.32 374.539 1471.6 370.477C1469.96 366.336 1467.7 362.703 1464.8 359.578C1461.91 356.375 1458.52 353.836 1454.61 351.961C1450.78 350.008 1446.68 349.031 1442.3 349.031C1437.93 349.031 1433.79 349.812 1429.88 351.375C1426.05 352.938 1422.7 355.203 1419.8 358.172C1416.99 361.062 1414.77 364.617 1413.12 368.836C1411.48 373.055 1410.66 377.82 1410.66 383.133C1410.66 387.742 1411.48 392.117 1413.12 396.258C1414.77 400.398 1416.99 404.031 1419.8 407.156C1422.7 410.281 1426.05 412.742 1429.88 414.539C1433.79 416.336 1437.93 417.234 1442.3 417.234C1446.68 417.234 1450.78 416.297 1454.61 414.422C1458.52 412.469 1461.91 409.93 1464.8 406.805C1467.7 403.602 1469.96 399.969 1471.6 395.906C1473.32 391.766 1474.18 387.508 1474.18 383.133ZM1563.12 447H1530.9V271.57H1563.12V447ZM1637.54 416.297C1638.79 416.688 1640.04 416.961 1641.29 417.117C1642.54 417.195 1643.79 417.234 1645.04 417.234C1648.16 417.234 1651.17 416.805 1654.06 415.945C1656.95 415.086 1659.65 413.875 1662.15 412.312C1664.73 410.672 1666.99 408.719 1668.95 406.453C1670.98 404.109 1672.62 401.531 1673.87 398.719L1697.3 422.273C1694.34 426.492 1690.9 430.281 1686.99 433.641C1683.16 437 1678.98 439.852 1674.45 442.195C1670 444.539 1665.27 446.297 1660.27 447.469C1655.35 448.719 1650.27 449.344 1645.04 449.344C1636.21 449.344 1627.89 447.703 1620.08 444.422C1612.34 441.141 1605.55 436.57 1599.69 430.711C1593.91 424.852 1589.34 417.898 1585.98 409.852C1582.62 401.727 1580.94 392.82 1580.94 383.133C1580.94 373.211 1582.62 364.148 1585.98 355.945C1589.34 347.742 1593.91 340.75 1599.69 334.969C1605.55 329.188 1612.34 324.695 1620.08 321.492C1627.89 318.289 1636.21 316.688 1645.04 316.688C1650.27 316.688 1655.39 317.312 1660.39 318.562C1665.39 319.812 1670.12 321.609 1674.57 323.953C1679.1 326.297 1683.32 329.188 1687.23 332.625C1691.13 335.984 1694.57 339.773 1697.54 343.992L1637.54 416.297ZM1653.95 350.32C1652.46 349.773 1650.98 349.422 1649.49 349.266C1648.09 349.109 1646.6 349.031 1645.04 349.031C1640.66 349.031 1636.52 349.852 1632.62 351.492C1628.79 353.055 1625.43 355.32 1622.54 358.289C1619.73 361.258 1617.5 364.852 1615.86 369.07C1614.22 373.211 1613.4 377.898 1613.4 383.133C1613.4 384.305 1613.44 385.633 1613.52 387.117C1613.67 388.602 1613.87 390.125 1614.1 391.688C1614.41 393.172 1614.77 394.617 1615.16 396.023C1615.55 397.43 1616.05 398.68 1616.68 399.773L1653.95 350.32Z" fill="black"/>
</svg>
