<svg width="2560" height="720" viewBox="0 0 2560 720" fill="none" xmlns="http://www.w3.org/2000/svg">
<rect width="2560" height="720" fill="#E11F1F"/>
<path d="M585.312 398.953C585.312 405.906 583.984 412.469 581.328 418.641C578.75 424.734 575.156 430.086 570.547 434.695C566.016 439.227 560.664 442.82 554.492 445.477C548.398 448.055 541.875 449.344 534.922 449.344C528.672 449.344 522.656 448.25 516.875 446.062C511.172 443.875 506.016 440.672 501.406 436.453C496.797 440.672 491.602 443.875 485.82 446.062C480.039 448.25 474.023 449.344 467.773 449.344C460.82 449.344 454.258 448.055 448.086 445.477C441.992 442.82 436.641 439.227 432.031 434.695C427.5 430.086 423.906 424.734 421.25 418.641C418.672 412.469 417.383 405.906 417.383 398.953V278.953H451.016V398.953C451.016 401.297 451.445 403.523 452.305 405.633C453.164 407.664 454.336 409.461 455.82 411.023C457.383 412.508 459.18 413.68 461.211 414.539C463.242 415.398 465.43 415.828 467.773 415.828C470.117 415.828 472.305 415.398 474.336 414.539C476.367 413.68 478.125 412.508 479.609 411.023C481.172 409.461 482.383 407.664 483.242 405.633C484.102 403.523 484.531 401.297 484.531 398.953V278.953H518.164V398.953C518.164 401.297 518.594 403.523 519.453 405.633C520.312 407.664 521.484 409.461 522.969 411.023C524.531 412.508 526.328 413.68 528.359 414.539C530.391 415.398 532.578 415.828 534.922 415.828C537.266 415.828 539.453 415.398 541.484 414.539C543.516 413.68 545.273 412.508 546.758 411.023C548.32 409.461 549.531 407.664 550.391 405.633C551.328 403.523 551.797 401.297 551.797 398.953V278.953H585.312V398.953ZM642.852 447H610.859V271.57H642.852V327C646.68 324.109 650.625 322.078 654.688 320.906C658.75 319.656 662.891 319.031 667.109 319.031C674.844 319.031 682.109 320.516 688.906 323.484C695.703 326.375 701.602 330.398 706.602 335.555C711.68 340.633 715.664 346.609 718.555 353.484C721.523 360.281 723.008 367.547 723.008 375.281V447H690.781V375.281H691.016C691.016 372 690.391 368.914 689.141 366.023C687.891 363.055 686.172 360.477 683.984 358.289C681.797 356.102 679.258 354.383 676.367 353.133C673.477 351.883 670.391 351.258 667.109 351.258C663.75 351.258 660.586 351.883 657.617 353.133C654.648 354.383 652.07 356.102 649.883 358.289C647.695 360.477 645.977 363.055 644.727 366.023C643.477 368.914 642.852 372 642.852 375.281V447ZM795.781 416.297C797.031 416.688 798.281 416.961 799.531 417.117C800.781 417.195 802.031 417.234 803.281 417.234C806.406 417.234 809.414 416.805 812.305 415.945C815.195 415.086 817.891 413.875 820.391 412.312C822.969 410.672 825.234 408.719 827.188 406.453C829.219 404.109 830.859 401.531 832.109 398.719L855.547 422.273C852.578 426.492 849.141 430.281 845.234 433.641C841.406 437 837.227 439.852 832.695 442.195C828.242 444.539 823.516 446.297 818.516 447.469C813.594 448.719 808.516 449.344 803.281 449.344C794.453 449.344 786.133 447.703 778.32 444.422C770.586 441.141 763.789 436.57 757.93 430.711C752.148 424.852 747.578 417.898 744.219 409.852C740.859 401.727 739.18 392.82 739.18 383.133C739.18 373.211 740.859 364.148 744.219 355.945C747.578 347.742 752.148 340.75 757.93 334.969C763.789 329.188 770.586 324.695 778.32 321.492C786.133 318.289 794.453 316.688 803.281 316.688C808.516 316.688 813.633 317.312 818.633 318.562C823.633 319.812 828.359 321.609 832.812 323.953C837.344 326.297 841.562 329.188 845.469 332.625C849.375 335.984 852.812 339.773 855.781 343.992L795.781 416.297ZM812.188 350.32C810.703 349.773 809.219 349.422 807.734 349.266C806.328 349.109 804.844 349.031 803.281 349.031C798.906 349.031 794.766 349.852 790.859 351.492C787.031 353.055 783.672 355.32 780.781 358.289C777.969 361.258 775.742 364.852 774.102 369.07C772.461 373.211 771.641 377.898 771.641 383.133C771.641 384.305 771.68 385.633 771.758 387.117C771.914 388.602 772.109 390.125 772.344 391.688C772.656 393.172 773.008 394.617 773.398 396.023C773.789 397.43 774.297 398.68 774.922 399.773L812.188 350.32ZM903.945 447H871.953V321.492H879.688L890.234 336.375C895.391 331.688 901.25 328.094 907.812 325.594C914.375 323.016 921.172 321.727 928.203 321.727H956.445V353.602H928.203C924.844 353.602 921.68 354.227 918.711 355.477C915.742 356.727 913.164 358.445 910.977 360.633C908.789 362.82 907.07 365.398 905.82 368.367C904.57 371.336 903.945 374.5 903.945 377.859V447ZM1018.91 416.297C1020.16 416.688 1021.41 416.961 1022.66 417.117C1023.91 417.195 1025.16 417.234 1026.41 417.234C1029.53 417.234 1032.54 416.805 1035.43 415.945C1038.32 415.086 1041.02 413.875 1043.52 412.312C1046.09 410.672 1048.36 408.719 1050.31 406.453C1052.34 404.109 1053.98 401.531 1055.23 398.719L1078.67 422.273C1075.7 426.492 1072.27 430.281 1068.36 433.641C1064.53 437 1060.35 439.852 1055.82 442.195C1051.37 444.539 1046.64 446.297 1041.64 447.469C1036.72 448.719 1031.64 449.344 1026.41 449.344C1017.58 449.344 1009.26 447.703 1001.45 444.422C993.711 441.141 986.914 436.57 981.055 430.711C975.273 424.852 970.703 417.898 967.344 409.852C963.984 401.727 962.305 392.82 962.305 383.133C962.305 373.211 963.984 364.148 967.344 355.945C970.703 347.742 975.273 340.75 981.055 334.969C986.914 329.188 993.711 324.695 1001.45 321.492C1009.26 318.289 1017.58 316.688 1026.41 316.688C1031.64 316.688 1036.76 317.312 1041.76 318.562C1046.76 319.812 1051.48 321.609 1055.94 323.953C1060.47 326.297 1064.69 329.188 1068.59 332.625C1072.5 335.984 1075.94 339.773 1078.91 343.992L1018.91 416.297ZM1035.31 350.32C1033.83 349.773 1032.34 349.422 1030.86 349.266C1029.45 349.109 1027.97 349.031 1026.41 349.031C1022.03 349.031 1017.89 349.852 1013.98 351.492C1010.16 353.055 1006.8 355.32 1003.91 358.289C1001.09 361.258 998.867 364.852 997.227 369.07C995.586 373.211 994.766 377.898 994.766 383.133C994.766 384.305 994.805 385.633 994.883 387.117C995.039 388.602 995.234 390.125 995.469 391.688C995.781 393.172 996.133 394.617 996.523 396.023C996.914 397.43 997.422 398.68 998.047 399.773L1035.31 350.32ZM1131.88 298.641C1131.88 302.078 1131.52 305.789 1130.82 309.773C1130.2 313.68 1129.14 317.586 1127.66 321.492C1126.25 325.32 1124.38 328.992 1122.03 332.508C1119.69 336.023 1116.88 338.992 1113.59 341.414L1100.94 332.508C1103.05 330.008 1104.65 327.625 1105.74 325.359C1106.84 323.094 1107.7 320.828 1108.32 318.562C1105.98 318.172 1103.79 317.391 1101.76 316.219C1099.73 315.047 1097.97 313.602 1096.48 311.883C1095.08 310.086 1093.95 308.055 1093.09 305.789C1092.23 303.523 1091.8 301.141 1091.8 298.641C1091.8 295.984 1092.3 293.445 1093.32 291.023C1094.41 288.602 1095.86 286.492 1097.66 284.695C1099.53 282.82 1101.64 281.375 1103.98 280.359C1106.41 279.266 1108.98 278.719 1111.72 278.719C1114.53 278.719 1117.15 279.266 1119.57 280.359C1122.07 281.375 1124.22 282.82 1126.02 284.695C1127.81 286.492 1129.22 288.602 1130.23 291.023C1131.33 293.445 1131.88 295.984 1131.88 298.641ZM1222.81 447H1149.69V415.125H1222.81C1225 415.125 1226.88 414.344 1228.44 412.781C1230 411.219 1230.78 409.344 1230.78 407.156C1230.78 404.891 1230 403.406 1228.44 402.703C1226.88 402 1225 401.648 1222.81 401.648H1189.53C1183.98 401.648 1178.79 400.594 1173.95 398.484C1169.1 396.375 1164.88 393.523 1161.29 389.93C1157.7 386.258 1154.84 382 1152.73 377.156C1150.7 372.312 1149.69 367.117 1149.69 361.57C1149.69 356.023 1150.7 350.828 1152.73 345.984C1154.84 341.141 1157.7 336.922 1161.29 333.328C1164.88 329.734 1169.1 326.922 1173.95 324.891C1178.79 322.781 1183.98 321.727 1189.53 321.727H1254.34V353.602H1189.53C1187.34 353.602 1185.47 354.383 1183.91 355.945C1182.34 357.508 1181.56 359.383 1181.56 361.57C1181.56 363.836 1182.34 365.789 1183.91 367.43C1185.47 368.992 1187.34 369.773 1189.53 369.773H1222.81C1228.28 369.773 1233.44 370.711 1238.28 372.586C1243.12 374.383 1247.34 376.922 1250.94 380.203C1254.53 383.484 1257.38 387.43 1259.49 392.039C1261.6 396.648 1262.66 401.688 1262.66 407.156C1262.66 412.703 1261.6 417.898 1259.49 422.742C1257.38 427.508 1254.53 431.727 1250.94 435.398C1247.34 438.992 1243.12 441.844 1238.28 443.953C1233.44 445.984 1228.28 447 1222.81 447ZM1517.19 398.953C1517.19 405.906 1515.86 412.469 1513.2 418.641C1510.62 424.734 1507.03 430.086 1502.42 434.695C1497.89 439.227 1492.54 442.82 1486.37 445.477C1480.27 448.055 1473.75 449.344 1466.8 449.344C1460.55 449.344 1454.53 448.25 1448.75 446.062C1443.05 443.875 1437.89 440.672 1433.28 436.453C1428.67 440.672 1423.48 443.875 1417.7 446.062C1411.91 448.25 1405.9 449.344 1399.65 449.344C1392.7 449.344 1386.13 448.055 1379.96 445.477C1373.87 442.82 1368.52 439.227 1363.91 434.695C1359.38 430.086 1355.78 424.734 1353.12 418.641C1350.55 412.469 1349.26 405.906 1349.26 398.953V278.953H1382.89V398.953C1382.89 401.297 1383.32 403.523 1384.18 405.633C1385.04 407.664 1386.21 409.461 1387.7 411.023C1389.26 412.508 1391.05 413.68 1393.09 414.539C1395.12 415.398 1397.3 415.828 1399.65 415.828C1401.99 415.828 1404.18 415.398 1406.21 414.539C1408.24 413.68 1410 412.508 1411.48 411.023C1413.05 409.461 1414.26 407.664 1415.12 405.633C1415.98 403.523 1416.41 401.297 1416.41 398.953V278.953H1450.04V398.953C1450.04 401.297 1450.47 403.523 1451.33 405.633C1452.19 407.664 1453.36 409.461 1454.84 411.023C1456.41 412.508 1458.2 413.68 1460.23 414.539C1462.27 415.398 1464.45 415.828 1466.8 415.828C1469.14 415.828 1471.33 415.398 1473.36 414.539C1475.39 413.68 1477.15 412.508 1478.63 411.023C1480.2 409.461 1481.41 407.664 1482.27 405.633C1483.2 403.523 1483.67 401.297 1483.67 398.953V278.953H1517.19V398.953ZM1663.79 447H1656.05L1643.63 429.773C1640.59 432.508 1637.34 435.086 1633.91 437.508C1630.55 439.852 1626.99 441.922 1623.24 443.719C1619.49 445.438 1615.62 446.805 1611.64 447.82C1607.73 448.836 1603.75 449.344 1599.69 449.344C1590.86 449.344 1582.54 447.859 1574.73 444.891C1566.99 441.922 1560.2 437.625 1554.34 432C1548.55 426.297 1543.98 419.344 1540.62 411.141C1537.27 402.938 1535.59 393.602 1535.59 383.133C1535.59 373.367 1537.27 364.422 1540.62 356.297C1543.98 348.094 1548.55 341.062 1554.34 335.203C1560.2 329.344 1566.99 324.812 1574.73 321.609C1582.54 318.328 1590.86 316.688 1599.69 316.688C1603.75 316.688 1607.77 317.195 1611.76 318.211C1615.74 319.227 1619.61 320.633 1623.36 322.43C1627.11 324.227 1630.66 326.336 1634.02 328.758C1637.46 331.18 1640.66 333.797 1643.63 336.609L1656.05 321.727H1663.79V447ZM1631.56 383.133C1631.56 378.758 1630.7 374.539 1628.98 370.477C1627.34 366.336 1625.08 362.703 1622.19 359.578C1619.3 356.375 1615.9 353.836 1611.99 351.961C1608.16 350.008 1604.06 349.031 1599.69 349.031C1595.31 349.031 1591.17 349.773 1587.27 351.258C1583.44 352.742 1580.08 354.93 1577.19 357.82C1574.38 360.711 1572.15 364.305 1570.51 368.602C1568.87 372.82 1568.05 377.664 1568.05 383.133C1568.05 388.602 1568.87 393.484 1570.51 397.781C1572.15 402 1574.38 405.555 1577.19 408.445C1580.08 411.336 1583.44 413.523 1587.27 415.008C1591.17 416.492 1595.31 417.234 1599.69 417.234C1604.06 417.234 1608.16 416.297 1611.99 414.422C1615.9 412.469 1619.3 409.93 1622.19 406.805C1625.08 403.602 1627.34 399.969 1628.98 395.906C1630.7 391.766 1631.56 387.508 1631.56 383.133ZM1720.51 447H1688.28V271.57H1720.51V447ZM1866.29 447H1858.55L1846.13 429.773C1843.09 432.508 1839.84 435.086 1836.41 437.508C1833.05 439.852 1829.49 441.922 1825.74 443.719C1821.99 445.438 1818.12 446.805 1814.14 447.82C1810.23 448.836 1806.25 449.344 1802.19 449.344C1793.36 449.344 1785.04 447.703 1777.23 444.422C1769.49 441.062 1762.7 436.453 1756.84 430.594C1751.05 424.656 1746.48 417.664 1743.12 409.617C1739.77 401.492 1738.09 392.664 1738.09 383.133C1738.09 373.68 1739.77 364.891 1743.12 356.766C1746.48 348.641 1751.05 341.609 1756.84 335.672C1762.7 329.734 1769.49 325.086 1777.23 321.727C1785.04 318.367 1793.36 316.688 1802.19 316.688C1805 316.688 1807.89 316.922 1810.86 317.391C1813.91 317.859 1816.84 318.641 1819.65 319.734C1822.54 320.75 1825.23 322.117 1827.73 323.836C1830.23 325.555 1832.34 327.664 1834.06 330.164V271.57H1866.29V447ZM1834.06 383.133C1834.06 378.758 1833.2 374.539 1831.48 370.477C1829.84 366.336 1827.58 362.703 1824.69 359.578C1821.8 356.375 1818.4 353.836 1814.49 351.961C1810.66 350.008 1806.56 349.031 1802.19 349.031C1797.81 349.031 1793.67 349.812 1789.77 351.375C1785.94 352.938 1782.58 355.203 1779.69 358.172C1776.88 361.062 1774.65 364.617 1773.01 368.836C1771.37 373.055 1770.55 377.82 1770.55 383.133C1770.55 387.742 1771.37 392.117 1773.01 396.258C1774.65 400.398 1776.88 404.031 1779.69 407.156C1782.58 410.281 1785.94 412.742 1789.77 414.539C1793.67 416.336 1797.81 417.234 1802.19 417.234C1806.56 417.234 1810.66 416.297 1814.49 414.422C1818.4 412.469 1821.8 409.93 1824.69 406.805C1827.58 403.602 1829.84 399.969 1831.48 395.906C1833.2 391.766 1834.06 387.508 1834.06 383.133ZM2012.07 383.133C2012.07 392.508 2010.39 401.258 2007.03 409.383C2003.67 417.43 1999.1 424.422 1993.32 430.359C1987.54 436.219 1980.74 440.867 1972.93 444.305C1965.2 447.664 1956.88 449.344 1947.97 449.344C1939.14 449.344 1930.82 447.664 1923.01 444.305C1915.27 440.867 1908.48 436.219 1902.62 430.359C1896.84 424.422 1892.27 417.43 1888.91 409.383C1885.55 401.258 1883.87 392.508 1883.87 383.133C1883.87 373.602 1885.55 364.773 1888.91 356.648C1892.27 348.523 1896.84 341.531 1902.62 335.672C1908.48 329.734 1915.27 325.086 1923.01 321.727C1930.82 318.367 1939.14 316.688 1947.97 316.688C1956.88 316.688 1965.2 318.289 1972.93 321.492C1980.74 324.617 1987.54 329.109 1993.32 334.969C1999.1 340.75 2003.67 347.742 2007.03 355.945C2010.39 364.07 2012.07 373.133 2012.07 383.133ZM1979.84 383.133C1979.84 377.977 1978.98 373.328 1977.27 369.188C1975.62 364.969 1973.36 361.375 1970.47 358.406C1967.58 355.359 1964.18 353.055 1960.27 351.492C1956.45 349.852 1952.34 349.031 1947.97 349.031C1943.59 349.031 1939.45 349.852 1935.55 351.492C1931.72 353.055 1928.36 355.359 1925.47 358.406C1922.66 361.375 1920.43 364.969 1918.79 369.188C1917.15 373.328 1916.33 377.977 1916.33 383.133C1916.33 387.977 1917.15 392.469 1918.79 396.609C1920.43 400.75 1922.66 404.344 1925.47 407.391C1928.36 410.438 1931.72 412.859 1935.55 414.656C1939.45 416.375 1943.59 417.234 1947.97 417.234C1952.34 417.234 1956.45 416.414 1960.27 414.773C1964.18 413.133 1967.58 410.828 1970.47 407.859C1973.36 404.891 1975.62 401.297 1977.27 397.078C1978.98 392.859 1979.84 388.211 1979.84 383.133ZM2148.95 329.344C2148.95 336.297 2147.62 342.859 2144.96 349.031C2142.38 355.125 2138.79 360.477 2134.18 365.086C2129.65 369.617 2124.3 373.211 2118.12 375.867C2112.03 378.523 2105.51 379.852 2098.55 379.852C2096.13 379.852 2093.98 380.281 2092.11 381.141C2090.31 382 2088.79 383.211 2087.54 384.773C2086.37 386.258 2085.47 388.016 2084.84 390.047C2084.22 392.078 2083.91 394.266 2083.91 396.609V405.516H2050.39V396.141C2050.47 389.266 2051.68 382.781 2054.02 376.688C2056.45 370.594 2059.77 365.32 2063.98 360.867C2068.28 356.336 2073.36 352.781 2079.22 350.203C2085.08 347.547 2091.52 346.219 2098.55 346.219C2100.9 346.219 2103.09 345.789 2105.12 344.93C2107.15 344.07 2108.91 342.898 2110.39 341.414C2111.95 339.852 2113.16 338.055 2114.02 336.023C2114.96 333.914 2115.43 331.688 2115.43 329.344C2115.43 327 2114.96 324.812 2114.02 322.781C2113.16 320.75 2111.95 318.992 2110.39 317.508C2108.91 315.945 2107.15 314.734 2105.12 313.875C2103.09 313.016 2100.9 312.586 2098.55 312.586H2021.56V278.953H2098.55C2105.51 278.953 2112.03 280.281 2118.12 282.938C2124.3 285.594 2129.65 289.227 2134.18 293.836C2138.79 298.367 2142.38 303.68 2144.96 309.773C2147.62 315.867 2148.95 322.391 2148.95 329.344ZM2087.3 435.047C2087.3 437.859 2086.76 440.516 2085.66 443.016C2084.65 445.438 2083.24 447.547 2081.45 449.344C2079.65 451.141 2077.54 452.547 2075.12 453.562C2072.7 454.656 2070.12 455.203 2067.38 455.203C2064.65 455.203 2062.03 454.656 2059.53 453.562C2057.11 452.547 2054.96 451.141 2053.09 449.344C2051.29 447.547 2049.84 445.438 2048.75 443.016C2047.73 440.516 2047.23 437.859 2047.23 435.047C2047.23 432.312 2047.73 429.734 2048.75 427.312C2049.84 424.891 2051.29 422.781 2053.09 420.984C2054.96 419.188 2057.11 417.781 2059.53 416.766C2062.03 415.672 2064.65 415.125 2067.38 415.125C2070.12 415.125 2072.7 415.672 2075.12 416.766C2077.54 417.781 2079.65 419.188 2081.45 420.984C2083.24 422.781 2084.65 424.891 2085.66 427.312C2086.76 429.734 2087.3 432.312 2087.3 435.047Z" fill="black"/>
</svg>
