<svg width="1920" height="720" viewBox="0 0 1920 720" fill="none" xmlns="http://www.w3.org/2000/svg">
<rect width="1920" height="720" fill="#E11F1F"/>
<path d="M496.875 386.469C496.875 391.104 495.99 395.479 494.219 399.594C492.5 403.656 490.104 407.224 487.031 410.297C484.01 413.318 480.443 415.714 476.328 417.484C472.266 419.203 467.917 420.062 463.281 420.062C459.115 420.062 455.104 419.333 451.25 417.875C447.448 416.417 444.01 414.281 440.938 411.469C437.865 414.281 434.401 416.417 430.547 417.875C426.693 419.333 422.682 420.062 418.516 420.062C413.88 420.062 409.505 419.203 405.391 417.484C401.328 415.714 397.76 413.318 394.688 410.297C391.667 407.224 389.271 403.656 387.5 399.594C385.781 395.479 384.922 391.104 384.922 386.469V306.469H407.344V386.469C407.344 388.031 407.63 389.516 408.203 390.922C408.776 392.276 409.557 393.474 410.547 394.516C411.589 395.505 412.786 396.286 414.141 396.859C415.495 397.432 416.953 397.719 418.516 397.719C420.078 397.719 421.536 397.432 422.891 396.859C424.245 396.286 425.417 395.505 426.406 394.516C427.448 393.474 428.255 392.276 428.828 390.922C429.401 389.516 429.688 388.031 429.688 386.469V306.469H452.109V386.469C452.109 388.031 452.396 389.516 452.969 390.922C453.542 392.276 454.323 393.474 455.312 394.516C456.354 395.505 457.552 396.286 458.906 396.859C460.26 397.432 461.719 397.719 463.281 397.719C464.844 397.719 466.302 397.432 467.656 396.859C469.01 396.286 470.182 395.505 471.172 394.516C472.214 393.474 473.021 392.276 473.594 390.922C474.219 389.516 474.531 388.031 474.531 386.469V306.469H496.875V386.469ZM535.234 418.5H513.906V301.547H535.234V338.5C537.786 336.573 540.417 335.219 543.125 334.438C545.833 333.604 548.594 333.188 551.406 333.188C556.562 333.188 561.406 334.177 565.938 336.156C570.469 338.083 574.401 340.766 577.734 344.203C581.12 347.589 583.776 351.573 585.703 356.156C587.682 360.688 588.672 365.531 588.672 370.688V418.5H567.188V370.688H567.344C567.344 368.5 566.927 366.443 566.094 364.516C565.26 362.536 564.115 360.818 562.656 359.359C561.198 357.901 559.505 356.755 557.578 355.922C555.651 355.089 553.594 354.672 551.406 354.672C549.167 354.672 547.057 355.089 545.078 355.922C543.099 356.755 541.38 357.901 539.922 359.359C538.464 360.818 537.318 362.536 536.484 364.516C535.651 366.443 535.234 368.5 535.234 370.688V418.5ZM637.188 398.031C638.021 398.292 638.854 398.474 639.688 398.578C640.521 398.63 641.354 398.656 642.188 398.656C644.271 398.656 646.276 398.37 648.203 397.797C650.13 397.224 651.927 396.417 653.594 395.375C655.312 394.281 656.823 392.979 658.125 391.469C659.479 389.906 660.573 388.188 661.406 386.312L677.031 402.016C675.052 404.828 672.76 407.354 670.156 409.594C667.604 411.833 664.818 413.734 661.797 415.297C658.828 416.859 655.677 418.031 652.344 418.812C649.062 419.646 645.677 420.062 642.188 420.062C636.302 420.062 630.755 418.969 625.547 416.781C620.391 414.594 615.859 411.547 611.953 407.641C608.099 403.734 605.052 399.099 602.812 393.734C600.573 388.318 599.453 382.38 599.453 375.922C599.453 369.307 600.573 363.266 602.812 357.797C605.052 352.328 608.099 347.667 611.953 343.812C615.859 339.958 620.391 336.964 625.547 334.828C630.755 332.693 636.302 331.625 642.188 331.625C645.677 331.625 649.089 332.042 652.422 332.875C655.755 333.708 658.906 334.906 661.875 336.469C664.896 338.031 667.708 339.958 670.312 342.25C672.917 344.49 675.208 347.016 677.188 349.828L637.188 398.031ZM648.125 354.047C647.135 353.682 646.146 353.448 645.156 353.344C644.219 353.24 643.229 353.188 642.188 353.188C639.271 353.188 636.51 353.734 633.906 354.828C631.354 355.87 629.115 357.38 627.188 359.359C625.312 361.339 623.828 363.734 622.734 366.547C621.641 369.307 621.094 372.432 621.094 375.922C621.094 376.703 621.12 377.589 621.172 378.578C621.276 379.568 621.406 380.583 621.562 381.625C621.771 382.615 622.005 383.578 622.266 384.516C622.526 385.453 622.865 386.286 623.281 387.016L648.125 354.047ZM709.297 418.5H687.969V334.828H693.125L700.156 344.75C703.594 341.625 707.5 339.229 711.875 337.562C716.25 335.844 720.781 334.984 725.469 334.984H744.297V356.234H725.469C723.229 356.234 721.12 356.651 719.141 357.484C717.161 358.318 715.443 359.464 713.984 360.922C712.526 362.38 711.38 364.099 710.547 366.078C709.714 368.057 709.297 370.167 709.297 372.406V418.5ZM785.938 398.031C786.771 398.292 787.604 398.474 788.438 398.578C789.271 398.63 790.104 398.656 790.938 398.656C793.021 398.656 795.026 398.37 796.953 397.797C798.88 397.224 800.677 396.417 802.344 395.375C804.062 394.281 805.573 392.979 806.875 391.469C808.229 389.906 809.323 388.188 810.156 386.312L825.781 402.016C823.802 404.828 821.51 407.354 818.906 409.594C816.354 411.833 813.568 413.734 810.547 415.297C807.578 416.859 804.427 418.031 801.094 418.812C797.812 419.646 794.427 420.062 790.938 420.062C785.052 420.062 779.505 418.969 774.297 416.781C769.141 414.594 764.609 411.547 760.703 407.641C756.849 403.734 753.802 399.099 751.562 393.734C749.323 388.318 748.203 382.38 748.203 375.922C748.203 369.307 749.323 363.266 751.562 357.797C753.802 352.328 756.849 347.667 760.703 343.812C764.609 339.958 769.141 336.964 774.297 334.828C779.505 332.693 785.052 331.625 790.938 331.625C794.427 331.625 797.839 332.042 801.172 332.875C804.505 333.708 807.656 334.906 810.625 336.469C813.646 338.031 816.458 339.958 819.062 342.25C821.667 344.49 823.958 347.016 825.938 349.828L785.938 398.031ZM796.875 354.047C795.885 353.682 794.896 353.448 793.906 353.344C792.969 353.24 791.979 353.188 790.938 353.188C788.021 353.188 785.26 353.734 782.656 354.828C780.104 355.87 777.865 357.38 775.938 359.359C774.062 361.339 772.578 363.734 771.484 366.547C770.391 369.307 769.844 372.432 769.844 375.922C769.844 376.703 769.87 377.589 769.922 378.578C770.026 379.568 770.156 380.583 770.312 381.625C770.521 382.615 770.755 383.578 771.016 384.516C771.276 385.453 771.615 386.286 772.031 387.016L796.875 354.047ZM861.25 319.594C861.25 321.885 861.016 324.359 860.547 327.016C860.13 329.62 859.427 332.224 858.438 334.828C857.5 337.38 856.25 339.828 854.688 342.172C853.125 344.516 851.25 346.495 849.062 348.109L840.625 342.172C842.031 340.505 843.099 338.917 843.828 337.406C844.557 335.896 845.13 334.385 845.547 332.875C843.984 332.615 842.526 332.094 841.172 331.312C839.818 330.531 838.646 329.568 837.656 328.422C836.719 327.224 835.964 325.87 835.391 324.359C834.818 322.849 834.531 321.26 834.531 319.594C834.531 317.823 834.87 316.13 835.547 314.516C836.276 312.901 837.24 311.495 838.438 310.297C839.688 309.047 841.094 308.083 842.656 307.406C844.271 306.677 845.99 306.312 847.812 306.312C849.688 306.312 851.432 306.677 853.047 307.406C854.714 308.083 856.146 309.047 857.344 310.297C858.542 311.495 859.479 312.901 860.156 314.516C860.885 316.13 861.25 317.823 861.25 319.594ZM921.875 418.5H873.125V397.25H921.875C923.333 397.25 924.583 396.729 925.625 395.688C926.667 394.646 927.188 393.396 927.188 391.938C927.188 390.427 926.667 389.438 925.625 388.969C924.583 388.5 923.333 388.266 921.875 388.266H899.688C895.99 388.266 892.526 387.562 889.297 386.156C886.068 384.75 883.255 382.849 880.859 380.453C878.464 378.005 876.562 375.167 875.156 371.938C873.802 368.708 873.125 365.245 873.125 361.547C873.125 357.849 873.802 354.385 875.156 351.156C876.562 347.927 878.464 345.115 880.859 342.719C883.255 340.323 886.068 338.448 889.297 337.094C892.526 335.688 895.99 334.984 899.688 334.984H942.891V356.234H899.688C898.229 356.234 896.979 356.755 895.938 357.797C894.896 358.839 894.375 360.089 894.375 361.547C894.375 363.057 894.896 364.359 895.938 365.453C896.979 366.495 898.229 367.016 899.688 367.016H921.875C925.521 367.016 928.958 367.641 932.188 368.891C935.417 370.089 938.229 371.781 940.625 373.969C943.021 376.156 944.922 378.786 946.328 381.859C947.734 384.932 948.438 388.292 948.438 391.938C948.438 395.635 947.734 399.099 946.328 402.328C944.922 405.505 943.021 408.318 940.625 410.766C938.229 413.161 935.417 415.062 932.188 416.469C928.958 417.823 925.521 418.5 921.875 418.5ZM1118.12 386.469C1118.12 391.104 1117.24 395.479 1115.47 399.594C1113.75 403.656 1111.35 407.224 1108.28 410.297C1105.26 413.318 1101.69 415.714 1097.58 417.484C1093.52 419.203 1089.17 420.062 1084.53 420.062C1080.36 420.062 1076.35 419.333 1072.5 417.875C1068.7 416.417 1065.26 414.281 1062.19 411.469C1059.11 414.281 1055.65 416.417 1051.8 417.875C1047.94 419.333 1043.93 420.062 1039.77 420.062C1035.13 420.062 1030.76 419.203 1026.64 417.484C1022.58 415.714 1019.01 413.318 1015.94 410.297C1012.92 407.224 1010.52 403.656 1008.75 399.594C1007.03 395.479 1006.17 391.104 1006.17 386.469V306.469H1028.59V386.469C1028.59 388.031 1028.88 389.516 1029.45 390.922C1030.03 392.276 1030.81 393.474 1031.8 394.516C1032.84 395.505 1034.04 396.286 1035.39 396.859C1036.74 397.432 1038.2 397.719 1039.77 397.719C1041.33 397.719 1042.79 397.432 1044.14 396.859C1045.49 396.286 1046.67 395.505 1047.66 394.516C1048.7 393.474 1049.51 392.276 1050.08 390.922C1050.65 389.516 1050.94 388.031 1050.94 386.469V306.469H1073.36V386.469C1073.36 388.031 1073.65 389.516 1074.22 390.922C1074.79 392.276 1075.57 393.474 1076.56 394.516C1077.6 395.505 1078.8 396.286 1080.16 396.859C1081.51 397.432 1082.97 397.719 1084.53 397.719C1086.09 397.719 1087.55 397.432 1088.91 396.859C1090.26 396.286 1091.43 395.505 1092.42 394.516C1093.46 393.474 1094.27 392.276 1094.84 390.922C1095.47 389.516 1095.78 388.031 1095.78 386.469V306.469H1118.12V386.469ZM1215.86 418.5H1210.7L1202.42 407.016C1200.39 408.839 1198.23 410.557 1195.94 412.172C1193.7 413.734 1191.33 415.115 1188.83 416.312C1186.33 417.458 1183.75 418.37 1181.09 419.047C1178.49 419.724 1175.83 420.062 1173.12 420.062C1167.24 420.062 1161.69 419.073 1156.48 417.094C1151.33 415.115 1146.8 412.25 1142.89 408.5C1139.04 404.698 1135.99 400.062 1133.75 394.594C1131.51 389.125 1130.39 382.901 1130.39 375.922C1130.39 369.411 1131.51 363.448 1133.75 358.031C1135.99 352.562 1139.04 347.875 1142.89 343.969C1146.8 340.062 1151.33 337.042 1156.48 334.906C1161.69 332.719 1167.24 331.625 1173.12 331.625C1175.83 331.625 1178.52 331.964 1181.17 332.641C1183.83 333.318 1186.41 334.255 1188.91 335.453C1191.41 336.651 1193.78 338.057 1196.02 339.672C1198.31 341.286 1200.44 343.031 1202.42 344.906L1210.7 334.984H1215.86V418.5ZM1194.38 375.922C1194.38 373.005 1193.8 370.193 1192.66 367.484C1191.56 364.724 1190.05 362.302 1188.12 360.219C1186.2 358.083 1183.93 356.391 1181.33 355.141C1178.78 353.839 1176.04 353.188 1173.12 353.188C1170.21 353.188 1167.45 353.682 1164.84 354.672C1162.29 355.661 1160.05 357.12 1158.12 359.047C1156.25 360.974 1154.77 363.37 1153.67 366.234C1152.58 369.047 1152.03 372.276 1152.03 375.922C1152.03 379.568 1152.58 382.823 1153.67 385.688C1154.77 388.5 1156.25 390.87 1158.12 392.797C1160.05 394.724 1162.29 396.182 1164.84 397.172C1167.45 398.161 1170.21 398.656 1173.12 398.656C1176.04 398.656 1178.78 398.031 1181.33 396.781C1183.93 395.479 1186.2 393.786 1188.12 391.703C1190.05 389.568 1191.56 387.146 1192.66 384.438C1193.8 381.677 1194.38 378.839 1194.38 375.922ZM1253.67 418.5H1232.19V301.547H1253.67V418.5ZM1350.86 418.5H1345.7L1337.42 407.016C1335.39 408.839 1333.23 410.557 1330.94 412.172C1328.7 413.734 1326.33 415.115 1323.83 416.312C1321.33 417.458 1318.75 418.37 1316.09 419.047C1313.49 419.724 1310.83 420.062 1308.12 420.062C1302.24 420.062 1296.69 418.969 1291.48 416.781C1286.33 414.542 1281.8 411.469 1277.89 407.562C1274.04 403.604 1270.99 398.943 1268.75 393.578C1266.51 388.161 1265.39 382.276 1265.39 375.922C1265.39 369.62 1266.51 363.76 1268.75 358.344C1270.99 352.927 1274.04 348.24 1277.89 344.281C1281.8 340.323 1286.33 337.224 1291.48 334.984C1296.69 332.745 1302.24 331.625 1308.12 331.625C1310 331.625 1311.93 331.781 1313.91 332.094C1315.94 332.406 1317.89 332.927 1319.77 333.656C1321.69 334.333 1323.49 335.245 1325.16 336.391C1326.82 337.536 1328.23 338.943 1329.38 340.609V301.547H1350.86V418.5ZM1329.38 375.922C1329.38 373.005 1328.8 370.193 1327.66 367.484C1326.56 364.724 1325.05 362.302 1323.12 360.219C1321.2 358.083 1318.93 356.391 1316.33 355.141C1313.78 353.839 1311.04 353.188 1308.12 353.188C1305.21 353.188 1302.45 353.708 1299.84 354.75C1297.29 355.792 1295.05 357.302 1293.12 359.281C1291.25 361.208 1289.77 363.578 1288.67 366.391C1287.58 369.203 1287.03 372.38 1287.03 375.922C1287.03 378.995 1287.58 381.911 1288.67 384.672C1289.77 387.432 1291.25 389.854 1293.12 391.938C1295.05 394.021 1297.29 395.661 1299.84 396.859C1302.45 398.057 1305.21 398.656 1308.12 398.656C1311.04 398.656 1313.78 398.031 1316.33 396.781C1318.93 395.479 1321.2 393.786 1323.12 391.703C1325.05 389.568 1326.56 387.146 1327.66 384.438C1328.8 381.677 1329.38 378.839 1329.38 375.922ZM1448.05 375.922C1448.05 382.172 1446.93 388.005 1444.69 393.422C1442.45 398.786 1439.4 403.448 1435.55 407.406C1431.69 411.312 1427.16 414.411 1421.95 416.703C1416.8 418.943 1411.25 420.062 1405.31 420.062C1399.43 420.062 1393.88 418.943 1388.67 416.703C1383.52 414.411 1378.98 411.312 1375.08 407.406C1371.22 403.448 1368.18 398.786 1365.94 393.422C1363.7 388.005 1362.58 382.172 1362.58 375.922C1362.58 369.568 1363.7 363.682 1365.94 358.266C1368.18 352.849 1371.22 348.188 1375.08 344.281C1378.98 340.323 1383.52 337.224 1388.67 334.984C1393.88 332.745 1399.43 331.625 1405.31 331.625C1411.25 331.625 1416.8 332.693 1421.95 334.828C1427.16 336.911 1431.69 339.906 1435.55 343.812C1439.4 347.667 1442.45 352.328 1444.69 357.797C1446.93 363.214 1448.05 369.255 1448.05 375.922ZM1426.56 375.922C1426.56 372.484 1425.99 369.385 1424.84 366.625C1423.75 363.812 1422.24 361.417 1420.31 359.438C1418.39 357.406 1416.12 355.87 1413.52 354.828C1410.96 353.734 1408.23 353.188 1405.31 353.188C1402.4 353.188 1399.64 353.734 1397.03 354.828C1394.48 355.87 1392.24 357.406 1390.31 359.438C1388.44 361.417 1386.95 363.812 1385.86 366.625C1384.77 369.385 1384.22 372.484 1384.22 375.922C1384.22 379.151 1384.77 382.146 1385.86 384.906C1386.95 387.667 1388.44 390.062 1390.31 392.094C1392.24 394.125 1394.48 395.74 1397.03 396.938C1399.64 398.083 1402.4 398.656 1405.31 398.656C1408.23 398.656 1410.96 398.109 1413.52 397.016C1416.12 395.922 1418.39 394.385 1420.31 392.406C1422.24 390.427 1423.75 388.031 1424.84 385.219C1425.99 382.406 1426.56 379.307 1426.56 375.922ZM1539.3 340.062C1539.3 344.698 1538.41 349.073 1536.64 353.188C1534.92 357.25 1532.53 360.818 1529.45 363.891C1526.43 366.911 1522.86 369.307 1518.75 371.078C1514.69 372.849 1510.34 373.734 1505.7 373.734C1504.09 373.734 1502.66 374.021 1501.41 374.594C1500.21 375.167 1499.19 375.974 1498.36 377.016C1497.58 378.005 1496.98 379.177 1496.56 380.531C1496.15 381.885 1495.94 383.344 1495.94 384.906V390.844H1473.59V384.594C1473.65 380.01 1474.45 375.688 1476.02 371.625C1477.63 367.562 1479.84 364.047 1482.66 361.078C1485.52 358.057 1488.91 355.688 1492.81 353.969C1496.72 352.198 1501.02 351.312 1505.7 351.312C1507.27 351.312 1508.72 351.026 1510.08 350.453C1511.43 349.88 1512.6 349.099 1513.59 348.109C1514.64 347.068 1515.44 345.87 1516.02 344.516C1516.64 343.109 1516.95 341.625 1516.95 340.062C1516.95 338.5 1516.64 337.042 1516.02 335.688C1515.44 334.333 1514.64 333.161 1513.59 332.172C1512.6 331.13 1511.43 330.323 1510.08 329.75C1508.72 329.177 1507.27 328.891 1505.7 328.891H1454.38V306.469H1505.7C1510.34 306.469 1514.69 307.354 1518.75 309.125C1522.86 310.896 1526.43 313.318 1529.45 316.391C1532.53 319.411 1534.92 322.953 1536.64 327.016C1538.41 331.078 1539.3 335.427 1539.3 340.062ZM1498.2 410.531C1498.2 412.406 1497.84 414.177 1497.11 415.844C1496.43 417.458 1495.49 418.865 1494.3 420.062C1493.1 421.26 1491.69 422.198 1490.08 422.875C1488.46 423.604 1486.74 423.969 1484.92 423.969C1483.1 423.969 1481.35 423.604 1479.69 422.875C1478.07 422.198 1476.64 421.26 1475.39 420.062C1474.19 418.865 1473.23 417.458 1472.5 415.844C1471.82 414.177 1471.48 412.406 1471.48 410.531C1471.48 408.708 1471.82 406.99 1472.5 405.375C1473.23 403.76 1474.19 402.354 1475.39 401.156C1476.64 399.958 1478.07 399.021 1479.69 398.344C1481.35 397.615 1483.1 397.25 1484.92 397.25C1486.74 397.25 1488.46 397.615 1490.08 398.344C1491.69 399.021 1493.1 399.958 1494.3 401.156C1495.49 402.354 1496.43 403.76 1497.11 405.375C1497.84 406.99 1498.2 408.708 1498.2 410.531Z" fill="black"/>
</svg>
